<?xml version="1.0" encoding="UTF-8"?>
<svg version="1.1" xmlns="http://www.w3.org/2000/svg" width="187" height="212">
<path d="M0 0 C61.71 0 123.42 0 187 0 C187 69.96 187 139.92 187 212 C125.29 212 63.58 212 0 212 C0 142.04 0 72.08 0 0 Z " fill="#D7C7C6" transform="translate(0,0)"/>
<path d="M0 0 C1.40883986 0.01507387 2.81769532 0.0287575 4.2265625 0.04101562 C7.65144396 0.07620276 11.07551763 0.12543921 14.5 0.1875 C14.995 1.1775 14.995 1.1775 15.5 2.1875 C16.655 2.208125 17.81 2.22875 19 2.25 C24.39136575 2.73396461 26.90496001 6.16426432 30.32421875 10.05859375 C32.64707926 12.33141059 34.47629751 13.10939712 37.5 14.1875 C38.83333333 15.52083333 40.16666667 16.85416667 41.5 18.1875 C45.20515633 19.93950036 48.77484315 20.69132202 52.8125 21.3125 C53.88113281 21.48007812 54.94976562 21.64765625 56.05078125 21.8203125 C56.85902344 21.94148438 57.66726562 22.06265625 58.5 22.1875 C58.995 23.6725 58.995 23.6725 59.5 25.1875 C54.55 25.1875 49.6 25.1875 44.5 25.1875 C44.5 25.8475 44.5 26.5075 44.5 27.1875 C45.16 27.1875 45.82 27.1875 46.5 27.1875 C46.82613281 27.79078125 47.15226562 28.3940625 47.48828125 29.015625 C47.92527344 29.81484375 48.36226563 30.6140625 48.8125 31.4375 C49.45638672 32.62085937 49.45638672 32.62085937 50.11328125 33.828125 C51.44416845 36.20799171 51.44416845 36.20799171 53.125 38.28125 C54.95228541 40.81453204 55.1519852 43.12496979 55.5 46.1875 C54.015 45.6925 54.015 45.6925 52.5 45.1875 C52.64107747 46.64630109 52.78802415 48.10453551 52.9375 49.5625 C53.01871094 50.37460938 53.09992188 51.18671875 53.18359375 52.0234375 C53.39090114 54.23022805 53.39090114 54.23022805 54.5 56.1875 C55.09369304 62.53544869 54.39601954 66.51130171 51.5 72.1875 C51.30118611 73.9740637 51.16098516 75.76760795 51.0625 77.5625 C50.76803014 82.28682079 49.65446522 85.27694581 47.359375 89.3515625 C45.18617927 93.99429883 46.55643566 99.35173277 47.5 104.1875 C48.2425 104.1875 48.985 104.1875 49.75 104.1875 C53.92260441 104.1875 57.66865555 104.32826959 61.75 105.1875 C63.08804688 105.4659375 63.08804688 105.4659375 64.453125 105.75 C65.12859375 105.894375 65.8040625 106.03875 66.5 106.1875 C66.5 105.5275 66.5 104.8675 66.5 104.1875 C69.5 105.1875 69.5 105.1875 71.25 108.125 C74.01768526 111.89212716 76.00420972 112.32292495 80.5 113.1875 C80.83 112.5275 81.16 111.8675 81.5 111.1875 C82.49 111.1875 83.48 111.1875 84.5 111.1875 C85.49 110.8575 86.48 110.5275 87.5 110.1875 C89.48 110.1875 91.46 110.1875 93.5 110.1875 C93.5 121.7375 93.5 133.2875 93.5 145.1875 C89.54 144.1975 89.54 144.1975 85.5 143.1875 C85.5 142.5275 85.5 141.8675 85.5 141.1875 C84.90832031 141.06632813 84.31664062 140.94515625 83.70703125 140.8203125 C82.52173828 140.56894531 82.52173828 140.56894531 81.3125 140.3125 C80.53519531 140.15007812 79.75789062 139.98765625 78.95703125 139.8203125 C76.5 139.1875 76.5 139.1875 74.28125 138.21875 C70.33715423 136.75633247 66.33345588 136.20386334 62.1875 135.5625 C61.35154297 135.4284375 60.51558594 135.294375 59.65429688 135.15625 C57.60368682 134.82815239 55.55194879 134.50711819 53.5 134.1875 C53.5 133.5275 53.5 132.8675 53.5 132.1875 C52.81292969 132.12691406 52.12585938 132.06632813 51.41796875 132.00390625 C50.51691406 131.92011719 49.61585938 131.83632812 48.6875 131.75 C47.79417969 131.66878906 46.90085937 131.58757812 45.98046875 131.50390625 C43.5 131.1875 43.5 131.1875 40.5 130.1875 C38.60787263 129.96570215 36.71115528 129.78135985 34.8125 129.625 C33.81863281 129.54121094 32.82476562 129.45742187 31.80078125 129.37109375 C31.04152344 129.31050781 30.28226562 129.24992188 29.5 129.1875 C29.314375 130.06535156 29.314375 130.06535156 29.125 130.9609375 C26.85494129 139.04802164 20.04080323 145.21507623 14.5 151.1875 C11.30173935 154.64976802 8.93091653 157.30377927 8.5 162.1875 C7.84 162.1875 7.18 162.1875 6.5 162.1875 C6.42652344 163.36505859 6.42652344 163.36505859 6.3515625 164.56640625 C6.23941406 166.14228516 6.23941406 166.14228516 6.125 167.75 C6.05539063 168.78253906 5.98578125 169.81507813 5.9140625 170.87890625 C5.46524115 174.46524287 4.52376374 177.72646011 3.5 181.1875 C-1.56777847 181.3622245 -6.63375674 181.48834068 -11.70385742 181.57202148 C-13.42356959 181.60694685 -15.1430782 181.65450728 -16.86206055 181.71557617 C-27.95457321 182.0994113 -35.73253721 181.83151646 -44.5 174.1875 C-45.09385498 173.71030518 -45.68770996 173.23311035 -46.29956055 172.74145508 C-52.72183595 167.35342152 -57.63762779 161.45989749 -59.5 153.1875 C-59.75 149.5625 -59.75 149.5625 -59.5 147.1875 C-58.04293274 146.68382243 -56.58429904 146.18467444 -55.125 145.6875 C-53.90683594 145.26984375 -53.90683594 145.26984375 -52.6640625 144.84375 C-50.5 144.1875 -50.5 144.1875 -48.5 144.1875 C-48.29128247 134.94595174 -48.35017452 126.2474788 -50.5 117.1875 C-51.82 117.1875 -53.14 117.1875 -54.5 117.1875 C-54.5 117.8475 -54.5 118.5075 -54.5 119.1875 C-55.82 119.1875 -57.14 119.1875 -58.5 119.1875 C-59.99821059 115.81652617 -60.5 113.98307881 -60.5 110.1875 C-61.16 110.1875 -61.82 110.1875 -62.5 110.1875 C-65.57223156 104.89465009 -66.99504791 101.0006922 -66.8125 94.75 C-66.79485596 94.01483154 -66.77721191 93.27966309 -66.7590332 92.5222168 C-66.7144074 90.78864959 -66.66012816 89.05531642 -66.59863281 87.32226562 C-66.50422561 84.32179907 -66.44717331 81.32213002 -66.40113831 78.3205719 C-66.35492361 75.43824936 -66.29491236 72.55629896 -66.23251343 69.67428589 C-66.20299622 68.24851465 -66.17701354 66.8226649 -66.15493774 65.39675903 C-65.72416918 39.62782599 -65.72416918 39.62782599 -59.5 32.1875 C-59.21125 31.3625 -58.9225 30.5375 -58.625 29.6875 C-57.18134239 26.47937197 -55.30584313 25.2755693 -52.5 23.1875 C-50.81384218 21.54055515 -49.14429829 19.87623879 -47.5 18.1875 C-45.5 16.1875 -45.5 16.1875 -43.3125 15.375 C-40.87163525 14.34441266 -39.32360916 13.38574872 -37.25 11.8125 C-33.82858435 9.2577425 -30.27536257 7.6573478 -26.3203125 6.08203125 C-24.31670164 5.32548503 -24.31670164 5.32548503 -23.5 3.1875 C-15.99914683 -0.72392975 -8.23449144 -0.15374403 0 0 Z M-50.5 115.1875 C-49.5 117.1875 -49.5 117.1875 -49.5 117.1875 Z " fill="#844D45" transform="translate(91.5,25.8125)"/>
<path d="M0 0 C1.40883986 0.01507387 2.81769532 0.0287575 4.2265625 0.04101562 C7.65144396 0.07620276 11.07551763 0.12543921 14.5 0.1875 C14.995 1.1775 14.995 1.1775 15.5 2.1875 C16.655 2.208125 17.81 2.22875 19 2.25 C24.39136575 2.73396461 26.90496001 6.16426432 30.32421875 10.05859375 C32.64707926 12.33141059 34.47629751 13.10939712 37.5 14.1875 C38.83333333 15.52083333 40.16666667 16.85416667 41.5 18.1875 C45.20515633 19.93950036 48.77484315 20.69132202 52.8125 21.3125 C53.88113281 21.48007812 54.94976562 21.64765625 56.05078125 21.8203125 C56.85902344 21.94148438 57.66726562 22.06265625 58.5 22.1875 C58.995 23.6725 58.995 23.6725 59.5 25.1875 C54.55 25.1875 49.6 25.1875 44.5 25.1875 C44.5 25.8475 44.5 26.5075 44.5 27.1875 C45.16 27.1875 45.82 27.1875 46.5 27.1875 C46.82613281 27.79078125 47.15226562 28.3940625 47.48828125 29.015625 C47.92527344 29.81484375 48.36226563 30.6140625 48.8125 31.4375 C49.45638672 32.62085937 49.45638672 32.62085937 50.11328125 33.828125 C51.44416845 36.20799171 51.44416845 36.20799171 53.125 38.28125 C54.95228541 40.81453204 55.1519852 43.12496979 55.5 46.1875 C54.015 45.6925 54.015 45.6925 52.5 45.1875 C52.64107747 46.64630109 52.78802415 48.10453551 52.9375 49.5625 C53.01871094 50.37460938 53.09992188 51.18671875 53.18359375 52.0234375 C53.39090114 54.23022805 53.39090114 54.23022805 54.5 56.1875 C55.07803618 62.36804065 54.66573597 66.74243413 51.5 72.1875 C50.80092586 74.92322585 50.80092586 74.92322585 50.5 77.1875 C49.84 77.1875 49.18 77.1875 48.5 77.1875 C48.314375 78.79625 48.314375 78.79625 48.125 80.4375 C47.5 84.1875 47.5 84.1875 46.484375 85.984375 C44.68464572 90.01234053 45.14053324 94.52098271 45.0390625 98.875 C44.42196138 102.66704168 43.45371996 103.83393828 40.5 106.1875 C40.5 104.2075 40.5 102.2275 40.5 100.1875 C39.51 100.1875 38.52 100.1875 37.5 100.1875 C37.17 102.1675 36.84 104.1475 36.5 106.1875 C36.17 106.1875 35.84 106.1875 35.5 106.1875 C35.5 99.5875 35.5 92.9875 35.5 86.1875 C33.85 85.8575 32.2 85.5275 30.5 85.1875 C31.03725895 88.56455625 31.61064623 91.884186 32.5 95.1875 C29.08436944 95.1875 28.34191626 94.59039855 25.625 92.6875 C22.32018692 90.53061102 20.49227291 89.8638022 16.5 90.1875 C13.6875 89.1875 13.6875 89.1875 11.5 88.1875 C11.83 86.2075 12.16 84.2275 12.5 82.1875 C11.64277344 82.34476562 10.78554687 82.50203125 9.90234375 82.6640625 C-4.92012272 84.94444196 -4.92012272 84.94444196 -10.8125 80.6875 C-11.699375 79.8625 -12.58625 79.0375 -13.5 78.1875 C-13.5 78.8475 -13.5 79.5075 -13.5 80.1875 C-13.5 81.5075 -13.5 82.8275 -13.5 84.1875 C-20.29839071 84.50370422 -26.80983984 83.31426382 -33.5 82.1875 C-32.5 80.1875 -31.5 78.1875 -30.5 76.1875 C-29.18 76.1875 -27.86 76.1875 -26.5 76.1875 C-27.16 74.5375 -27.82 72.8875 -28.5 71.1875 C-32.02309935 72.3704497 -32.02309935 72.3704497 -34.8515625 74.66796875 C-37.52108094 77.12873337 -40.76673428 77.49118775 -44.22265625 78.34375 C-46.8389673 79.05948353 -46.8389673 79.05948353 -48.5 82.1875 C-48.9562792 84.76463254 -49.32945276 87.28048285 -49.625 89.875 C-49.71136719 90.57689453 -49.79773437 91.27878906 -49.88671875 92.00195312 C-50.09826875 93.72961145 -50.300086 95.4584566 -50.5 97.1875 C-52.96800047 96.03576645 -54.54783565 95.13966435 -56.5 93.1875 C-57.06520003 90.53212628 -57.23788198 87.89605287 -57.5 85.1875 C-59.15 84.5275 -60.8 83.8675 -62.5 83.1875 C-64.34518918 52.52698345 -64.34518918 52.52698345 -60.5 39.1875 C-60.19707031 38.11113281 -59.89414062 37.03476562 -59.58203125 35.92578125 C-57.85463806 30.53208416 -56.42145013 27.3084196 -51.5 24.1875 C-49.82636284 22.5278331 -48.16055948 20.86025155 -46.5 19.1875 C-40.31681836 13.56292356 -34.41978194 9.24361779 -26.6171875 6.16015625 C-24.33501197 5.37924529 -24.33501197 5.37924529 -23.5 3.1875 C-15.99914683 -0.72392975 -8.23449144 -0.15374403 0 0 Z " fill="#1B0E11" transform="translate(91.5,25.8125)"/>
<path d="M0 0 C61.71 0 123.42 0 187 0 C187 69.96 187 139.92 187 212 C125.29 212 63.58 212 0 212 C0 203.42 0 194.84 0 186 C2.64 185.01 5.28 184.02 8 183 C10.07030949 181.7872037 10.07030949 181.7872037 11.75 180.5 C16.06014177 177.63517523 20.53307074 176.7010131 25.55859375 175.67578125 C26.36425781 175.45277344 27.16992188 175.22976562 28 175 C28.33 174.34 28.66 173.68 29 173 C29.66 173 30.32 173 31 173 C31.00515625 173.64324219 31.0103125 174.28648437 31.015625 174.94921875 C31.96356579 186.02432701 39.69857697 192.38565389 47.65234375 199.30859375 C49.72590252 200.9681308 51.779144 202.54480202 54 204 C54.5249707 204.34764404 55.04994141 204.69528809 55.59082031 205.0534668 C59.15167352 206.45247651 62.70936087 206.35877301 66.484375 206.4140625 C67.29996887 206.43342865 68.11556274 206.4527948 68.95587158 206.4727478 C71.55380892 206.53239575 74.15179093 206.57886942 76.75 206.625 C78.51434194 206.66319342 80.27866551 206.70224595 82.04296875 206.7421875 C86.36182946 206.83808505 90.68077744 206.92217047 95 207 C94.979375 206.030625 94.95875 205.06125 94.9375 204.0625 C95 201 95 201 96 200 C96.39569108 197.98688551 96.74252191 195.96402792 97.0625 193.9375 C97.32740234 192.28041016 97.32740234 192.28041016 97.59765625 190.58984375 C97.73042969 189.73519531 97.86320312 188.88054687 98 188 C98.66 188 99.32 188 100 188 C99.90460938 187.28585938 99.80921875 186.57171875 99.7109375 185.8359375 C100.11524742 181.86932938 101.87475015 180.45637816 104.625 177.625 C105.5485519 176.65009452 106.47173027 175.67483505 107.39453125 174.69921875 C108.68423828 173.36310547 108.68423828 173.36310547 110 172 C114.92405043 166.82289344 118.03880915 161.51199935 121 155 C129.4342927 154.54363547 136.85956596 155.82576642 145 158 C145 158.66 145 159.32 145 160 C146.70542969 160.12955078 146.70542969 160.12955078 148.4453125 160.26171875 C158.70483772 161.15588732 167.48745325 162.99310732 177 167 C177 167.66 177 168.32 177 169 C180.96 169.99 180.96 169.99 185 171 C185 116.88 185 62.76 185 7 C123.95 7 62.9 7 0 7 C0 4.69 0 2.38 0 0 Z " fill="#FFFFFF" transform="translate(0,0)"/>
<path d="M0 0 C0.66 0 1.32 0 2 0 C2.40100309 4.01003085 1.91417115 6.47985986 0 9.9375 C-3.06939495 15.63160724 -2.20782597 20.80989191 -1 27 C-0.2575 27 0.485 27 1.25 27 C5.42260441 27 9.16865555 27.14076959 13.25 28 C14.14203125 28.185625 15.0340625 28.37125 15.953125 28.5625 C16.62859375 28.706875 17.3040625 28.85125 18 29 C18 28.34 18 27.68 18 27 C21 28 21 28 22.75 30.9375 C25.51768526 34.70462716 27.50420972 35.13542495 32 36 C32.495 35.01 32.495 35.01 33 34 C33.99 34 34.98 34 36 34 C36.99 33.67 37.98 33.34 39 33 C40.98 33 42.96 33 45 33 C45 44.55 45 56.1 45 68 C42.36 67.34 39.72 66.68 37 66 C37 65.34 37 64.68 37 64 C36.11248047 63.81824219 36.11248047 63.81824219 35.20703125 63.6328125 C34.41683594 63.46523437 33.62664062 63.29765625 32.8125 63.125 C32.03519531 62.96257812 31.25789063 62.80015625 30.45703125 62.6328125 C28 62 28 62 25.78125 61.03125 C21.83715423 59.56883247 17.83345588 59.01636334 13.6875 58.375 C12.85154297 58.2409375 12.01558594 58.106875 11.15429688 57.96875 C9.10368682 57.64065239 7.05194879 57.31961819 5 57 C5 56.34 5 55.68 5 55 C3.96939453 54.90912109 3.96939453 54.90912109 2.91796875 54.81640625 C2.01691406 54.73261719 1.11585938 54.64882812 0.1875 54.5625 C-0.70582031 54.48128906 -1.59914063 54.40007812 -2.51953125 54.31640625 C-5 54 -5 54 -8 53 C-9.89212737 52.77820215 -11.78884472 52.59385985 -13.6875 52.4375 C-14.68136719 52.35371094 -15.67523438 52.26992187 -16.69921875 52.18359375 C-17.83810547 52.09271484 -17.83810547 52.09271484 -19 52 C-19.185625 52.87785156 -19.185625 52.87785156 -19.375 53.7734375 C-22.06267077 63.34826461 -31.19915936 72.33138914 -39 78 C-39.66 78 -40.32 78 -41 78 C-41 75.36 -41 72.72 -41 70 C-41.495 71.485 -41.495 71.485 -42 73 C-56.93387901 74.74088758 -56.93387901 74.74088758 -64 71 C-64.495 70.01 -64.495 70.01 -65 69 C-59.72 69 -54.44 69 -49 69 C-48.34 67.35 -47.68 65.7 -47 64 C-48.093125 64.185625 -49.18625 64.37125 -50.3125 64.5625 C-56.72536221 65.34984429 -63.32666609 65.3104578 -69.1875 62.4375 C-69.785625 61.963125 -70.38375 61.48875 -71 61 C-70.525625 61.763125 -70.05125 62.52625 -69.5625 63.3125 C-68 66 -68 66 -67 69 C-69.86493176 68.9157373 -71.53415293 68.4739994 -73.5625 66.41015625 C-74.58803821 65.15643578 -75.59171352 63.88444271 -76.5703125 62.59375 C-78.0134095 60.72051898 -78.0134095 60.72051898 -81 60 C-81 59.01 -81 58.02 -81 57 C-80.38125 57.165 -79.7625 57.33 -79.125 57.5 C-74.74529271 58.20075317 -70.42571011 58.07734251 -66 58 C-66 55.36 -66 52.72 -66 50 C-61.05 50 -56.1 50 -51 50 C-50.7834375 47.3703125 -50.7834375 47.3703125 -50.5625 44.6875 C-50.30314642 41.53820647 -50.00259507 39.00778521 -49 36 C-48.90714197 34.06648941 -48.81798354 32.13261733 -48.75976562 30.19775391 C-48.50898357 22.35403689 -47.54076357 16.11103351 -44 9 C-43.67 8.01 -43.34 7.02 -43 6 C-43.66 6.33 -44.32 6.66 -45 7 C-47.3329866 7.04022391 -49.66706666 7.04320247 -52 7 C-52 6.34 -52 5.68 -52 5 C-46.72 5 -41.44 5 -36 5 C-36.33 6.98 -36.66 8.96 -37 11 C-36.07380859 11.02126953 -36.07380859 11.02126953 -35.12890625 11.04296875 C-28.31567998 11.42666642 -23.68481853 13.27877821 -18 17 C-18 13.88772805 -18.45627049 11.05847848 -19 8 C-17 7 -17 7 -14.921875 7.4296875 C-13 9 -13 9 -12.390625 12.6953125 C-12.32414708 14.17112237 -12.27806121 15.64796017 -12.25 17.125 C-12.22035156 17.87910156 -12.19070312 18.63320312 -12.16015625 19.41015625 C-12.08942068 21.27285953 -12.04245017 23.13643755 -12 25 C-11.67 24.34 -11.34 23.68 -11 23 C-10.01 23 -9.02 23 -8 23 C-7.505 25.475 -7.505 25.475 -7 28 C-4.12496498 23.68744746 -4.61050727 19.63236402 -4.44140625 14.54296875 C-3.96894587 10.75074253 -2.83348706 8.32022657 -1 5 C-0.30092586 2.26427415 -0.30092586 2.26427415 0 0 Z " fill="#6A3934" transform="translate(140,103)"/>
<path d="M0 0 C8.4342927 -0.45636453 15.85956596 0.82576642 24 3 C24 3.66 24 4.32 24 5 C25.13695312 5.08636719 26.27390625 5.17273438 27.4453125 5.26171875 C37.70483772 6.15588732 46.48745325 7.99310732 56 12 C56 12.66 56 13.32 56 14 C58.64 14.66 61.28 15.32 64 16 C64 27.88 64 39.76 64 52 C34.3 52 4.6 52 -26 52 C-26 46 -26 46 -25 45 C-24.60430892 42.98688551 -24.25747809 40.96402792 -23.9375 38.9375 C-23.67259766 37.28041016 -23.67259766 37.28041016 -23.40234375 35.58984375 C-23.26957031 34.73519531 -23.13679688 33.88054687 -23 33 C-22.34 33 -21.68 33 -21 33 C-21.09539062 32.28585938 -21.19078125 31.57171875 -21.2890625 30.8359375 C-20.88475258 26.86932938 -19.12524985 25.45637816 -16.375 22.625 C-15.4514481 21.65009452 -14.52826973 20.67483505 -13.60546875 19.69921875 C-12.74566406 18.80847656 -11.88585937 17.91773438 -11 17 C-6.07594957 11.82289344 -2.96119085 6.51199935 0 0 Z " fill="#B4A2A1" transform="translate(121,155)"/>
<path d="M0 0 C8.4342927 -0.45636453 15.85956596 0.82576642 24 3 C24 3.66 24 4.32 24 5 C25.13695312 5.08636719 26.27390625 5.17273438 27.4453125 5.26171875 C37.70483772 6.15588732 46.48745325 7.99310732 56 12 C56 12.66 56 13.32 56 14 C57.65 14.66 59.3 15.32 61 16 C60.505 18.475 60.505 18.475 60 21 C59.01 21 58.02 21 57 21 C56.67 22.98 56.34 24.96 56 27 C54.71416016 27.05607422 54.71416016 27.05607422 53.40234375 27.11328125 C45.95666354 27.40574956 45.95666354 27.40574956 38.9375 29.625 C36 31 36 31 33.625 30.875 C32 30 32 30 31 27 C30.18402344 27.48339844 30.18402344 27.48339844 29.3515625 27.9765625 C25.79916727 29.52262155 22.29351854 29.34791232 18.4609375 29.4609375 C17.64882812 29.63882813 16.83671875 29.81671875 16 30 C14.85362916 31.93856631 14.85362916 31.93856631 14 34 C8.27728277 36.00797096 3.02221378 36.25092557 -3 36 C-3 36.66 -3 37.32 -3 38 C-4.32 38 -5.64 38 -7 38 C-7 37.34 -7 36.68 -7 36 C-9.31 35.67 -11.62 35.34 -14 35 C-14 34.01 -14 33.02 -14 32 C-14.99 32 -15.98 32 -17 32 C-17.49668305 26.77905264 -16.94890063 23.21028395 -13.66015625 19.015625 C-12.2149451 17.47606327 -10.73207285 15.98210179 -9.23779297 14.49023438 C-4.95184737 10.16360386 -2.27216074 5.67412517 0 0 Z " fill="#D5C5C3" transform="translate(121,155)"/>
<path d="M0 0 C0.66 0 1.32 0 2 0 C2.00515625 0.64324219 2.0103125 1.28648437 2.015625 1.94921875 C2.96022785 12.98532867 10.66304293 19.42546537 18.65234375 26.2734375 C20.73141412 27.9131702 22.83706721 29.47373694 25 31 C26.32 31.99 27.64 32.98 29 34 C9.86 34 -9.28 34 -29 34 C-29 27.07 -29 20.14 -29 13 C-26.36 12.01 -23.72 11.02 -21 10 C-18.92969051 8.7872037 -18.92969051 8.7872037 -17.25 7.5 C-12.93985823 4.63517523 -8.46692926 3.7010131 -3.44140625 2.67578125 C-2.63574219 2.45277344 -1.83007812 2.22976562 -1 2 C-0.67 1.34 -0.34 0.68 0 0 Z " fill="#F6E9E3" transform="translate(29,173)"/>
<path d="M0 0 C2.60360012 2.2781501 3.87253373 4.17882305 4.40625 7.6171875 C4.61119267 14.1924316 3.49978303 19.39533578 1.015625 25.45703125 C0.08654585 27.78330251 -0.56645033 30.00060183 -1.125 32.4375 C-2 36 -2 36 -3.125 38.0625 C-4.45638311 41.0105626 -4.12243062 43.81680387 -4 47 C1.90669263 49.25760608 7.50880277 50.24179984 13.8125 50.5 C20.14411235 50.76238441 25.97491986 51.68179737 32.1328125 53.28125 C35.07421306 54.01860382 38.00421539 54.53774243 41 55 C41 56.65 41 58.3 41 60 C35.25 61.125 35.25 61.125 33 60 C32.505 60.99 32.505 60.99 32 62 C28.25388296 63.58489567 24.83412724 63.07624624 21 62 C19.41024604 60.30204289 18.23904345 58.58584711 17.04296875 56.59375 C16.07986226 54.83012745 16.07986226 54.83012745 14 54 C14 54.66 14 55.32 14 56 C8.93402467 56.17172798 5.69050998 56.01021856 1 54 C-0.485 54.495 -0.485 54.495 -2 55 C-2.99 54.67 -3.98 54.34 -5 54 C-6.98797032 49.60553928 -7.49466976 45.78180768 -7 41 C-6.13671875 39.1640625 -6.13671875 39.1640625 -5.0625 37.25 C-2.71907198 33.03838461 -2.54189988 29.27768784 -2.28125 24.52734375 C-2 22 -2 22 -0.4375 18.9375 C2.40590846 13.12705663 1.30170965 6.18312085 0 0 Z " fill="#C19385" transform="translate(144,76)"/>
<path d="M0 0 C0 0.99 0 1.98 0 3 C-0.33 3.33 -0.66 3.66 -1 4 C-1.22528924 5.99541896 -1.44761095 7.99159864 -1.62109375 9.9921875 C-2 12 -2 12 -4 15 C-3.07058594 14.98839844 -2.14117187 14.97679687 -1.18359375 14.96484375 C11.09490334 14.87521968 11.09490334 14.87521968 17 16 C17 17.65 17 19.3 17 21 C17.66 21 18.32 21 19 21 C18.42415568 23.38564077 17.77772405 25.66682784 17 28 C8.42 28 -0.16 28 -9 28 C-9 22 -9 22 -8 21 C-7.60430892 18.98688551 -7.25747809 16.96402792 -6.9375 14.9375 C-6.67259766 13.28041016 -6.67259766 13.28041016 -6.40234375 11.58984375 C-6.26957031 10.73519531 -6.13679688 9.88054687 -6 9 C-5.34 9 -4.68 9 -4 9 C-4.0825 8.2575 -4.165 7.515 -4.25 6.75 C-3.92894816 3.21842973 -2.64734383 2.23369636 0 0 Z " fill="#8C8593" transform="translate(104,179)"/>
<path d="M0 0 C0.66163651 0.0028299 1.32327301 0.00565979 2.00495911 0.00857544 C4.11416862 0.01975332 6.2229505 0.04485269 8.33203125 0.0703125 C9.76366573 0.08034543 11.19530689 0.08947074 12.62695312 0.09765625 C16.13295102 0.11968455 19.63869938 0.15419765 23.14453125 0.1953125 C23.63953125 1.1853125 23.63953125 1.1853125 24.14453125 2.1953125 C25.29953125 2.2159375 26.45453125 2.2365625 27.64453125 2.2578125 C33.035897 2.74177711 35.54949126 6.17207682 38.96875 10.06640625 C41.29161051 12.33922309 43.12082876 13.11720962 46.14453125 14.1953125 C47.47786458 15.52864583 48.81119792 16.86197917 50.14453125 18.1953125 C53.84968758 19.94731286 57.4193744 20.69913452 61.45703125 21.3203125 C62.52566406 21.48789062 63.59429687 21.65546875 64.6953125 21.828125 C65.50355469 21.94929688 66.31179687 22.07046875 67.14453125 22.1953125 C67.63953125 23.6803125 67.63953125 23.6803125 68.14453125 25.1953125 C63.19453125 25.1953125 58.24453125 25.1953125 53.14453125 25.1953125 C53.14453125 25.8553125 53.14453125 26.5153125 53.14453125 27.1953125 C53.80453125 27.1953125 54.46453125 27.1953125 55.14453125 27.1953125 C55.47066406 27.79859375 55.79679687 28.401875 56.1328125 29.0234375 C56.56980469 29.82265625 57.00679688 30.621875 57.45703125 31.4453125 C58.10091797 32.62867187 58.10091797 32.62867187 58.7578125 33.8359375 C60.0886997 36.21580421 60.0886997 36.21580421 61.76953125 38.2890625 C63.59681666 40.82234454 63.79651645 43.13278229 64.14453125 46.1953125 C62.65953125 45.7003125 62.65953125 45.7003125 61.14453125 45.1953125 C60.48453125 46.1853125 59.82453125 47.1753125 59.14453125 48.1953125 C56.89846698 46.42086278 56.19372123 45.61178765 55.8515625 42.71484375 C55.88636719 41.82152344 55.92117187 40.92820313 55.95703125 40.0078125 C55.99763672 38.65623047 55.99763672 38.65623047 56.0390625 37.27734375 C56.07386719 36.59027344 56.10867187 35.90320312 56.14453125 35.1953125 C55.48453125 35.1953125 54.82453125 35.1953125 54.14453125 35.1953125 C52.7421875 33.18359375 52.7421875 33.18359375 51.20703125 30.5078125 C50.70300781 29.63769531 50.19898438 28.76757812 49.6796875 27.87109375 C49.17308594 26.98808594 48.66648438 26.10507812 48.14453125 25.1953125 C46.54197471 22.41701096 45.23065603 20.28143728 42.95703125 18.0078125 C42.35890625 17.4096875 41.76078125 16.8115625 41.14453125 16.1953125 C41.14453125 15.5353125 41.14453125 14.8753125 41.14453125 14.1953125 C40.27828125 14.040625 40.27828125 14.040625 39.39453125 13.8828125 C36.78791967 13.08634785 35.17100015 12.00465973 33.14453125 10.1953125 C33.14453125 9.5353125 33.14453125 8.8753125 33.14453125 8.1953125 C31.16453125 7.5353125 29.18453125 6.8753125 27.14453125 6.1953125 C27.14453125 5.5353125 27.14453125 4.8753125 27.14453125 4.1953125 C24.83453125 3.8653125 22.52453125 3.5353125 20.14453125 3.1953125 C20.14453125 2.5353125 20.14453125 1.8753125 20.14453125 1.1953125 C10.24453125 1.5253125 0.34453125 1.8553125 -9.85546875 2.1953125 C-6.1761743 -0.25755046 -4.38168968 -0.03697628 0 0 Z " fill="#847980" transform="translate(82.85546875,25.8046875)"/>
<path d="M0 0 C2.3125 0.1875 2.3125 0.1875 5 1 C5.8353125 1.99 5.8353125 1.99 6.6875 3 C9.39980341 5.34577593 10.38831921 5.2915288 13.875 5.5 C18.78853521 5.79801027 21.28716698 6.77569764 25 10 C25 10.66 25 11.32 25 12 C25.59538574 11.99476318 26.19077148 11.98952637 26.80419922 11.98413086 C29.49445547 11.96338001 32.18469489 11.95034593 34.875 11.9375 C35.81214844 11.92912109 36.74929687 11.92074219 37.71484375 11.91210938 C39.05869141 11.90727539 39.05869141 11.90727539 40.4296875 11.90234375 C41.67081299 11.89448853 41.67081299 11.89448853 42.93701172 11.88647461 C45 12 45 12 47 13 C47.625 16.0625 47.625 16.0625 48 19 C49.77067416 19.16834933 51.54154612 19.33461909 53.3125 19.5 C54.79169922 19.63921875 54.79169922 19.63921875 56.30078125 19.78125 C59.04702139 20.04038857 59.04702139 20.04038857 62 20 C62.33 19.34 62.66 18.68 63 18 C63.2165625 19.11375 63.2165625 19.11375 63.4375 20.25 C63.90187492 22.52027739 64.41863569 24.75759479 65 27 C61.58436944 27 60.84191626 26.40289855 58.125 24.5 C54.82018692 22.34311102 52.99227291 21.6763022 49 22 C46.1875 21 46.1875 21 44 20 C44.33 18.02 44.66 16.04 45 14 C44.14277344 14.15726563 43.28554687 14.31453125 42.40234375 14.4765625 C27.57987728 16.75694196 27.57987728 16.75694196 21.6875 12.5 C20.800625 11.675 19.91375 10.85 19 10 C19 10.66 19 11.32 19 12 C19 13.32 19 14.64 19 16 C12.20160929 16.31620422 5.69016016 15.12676382 -1 14 C0 12 1 10 2 8 C3.32 8 4.64 8 6 8 C5.34 6.35 4.68 4.7 4 3 C0.56661484 4.20632452 -1.50364585 5.38477184 -4 8 C-4.66 8 -5.32 8 -6 8 C-6 6 -6 6 -3.5625 3.4375 C-2.716875 2.633125 -1.87125 1.82875 -1 1 C-0.67 0.67 -0.34 0.34 0 0 Z " fill="#41191B" transform="translate(59,94)"/>
<path d="M0 0 C1.5 1.3125 1.5 1.3125 3 3 C3 3.99 3 4.98 3 6 C3.66 6 4.32 6 5 6 C6.49821059 9.37097383 7 11.20442119 7 15 C8.32 15 9.64 15 11 15 C11 14.34 11 13.68 11 13 C12.32 13 13.64 13 15 13 C17.802983 21.17536709 19.15966245 29.35937785 18 38 C16.4765625 39.90625 16.4765625 39.90625 15 41 C14.34 40.67 13.68 40.34 13 40 C13.66 38.35 14.32 36.7 15 35 C14.34 35 13.68 35 13 35 C12.67 34.34 12.34 33.68 12 33 C11.071875 33.37125 10.14375 33.7425 9.1875 34.125 C7.6096875 34.558125 7.6096875 34.558125 6 35 C3 33 3 33 2 30 C1.7704918 23.45901639 1.7704918 23.45901639 3 21 C3.66 21 4.32 21 5 21 C5.4136013 15.20958179 4.77759404 11.8851243 1.95703125 6.83203125 C0.79455963 4.60672843 0.310375 2.48300002 0 0 Z " fill="#C0A48D" transform="translate(26,130)"/>
<path d="M0 0 C1.98 0.66 3.96 1.32 6 2 C5.67 2.99 5.34 3.98 5 5 C1.7 5 -1.6 5 -5 5 C-5.08834963 11.11399865 -5.08834963 11.11399865 -2.1171875 16.203125 C-0.65524845 17.53771744 0.84438368 18.83247675 2.3828125 20.078125 C2.91648438 20.71234375 3.45015625 21.3465625 4 22 C3.77734375 24.18359375 3.77734375 24.18359375 3 27 C2.71827286 29.93154336 2.5878749 32.87156146 2.4375 35.8125 C2.39431641 36.60076172 2.35113281 37.38902344 2.30664062 38.20117188 C2.20121679 40.13394215 2.10016906 42.06695026 2 44 C1.34 44 0.68 44 0 44 C-0.11472656 44.85980469 -0.22945312 45.71960938 -0.34765625 46.60546875 C-1.01808314 50.09409732 -2.06456397 53.0410827 -3.4375 56.3125 C-3.86933594 57.36050781 -4.30117187 58.40851563 -4.74609375 59.48828125 C-6 62 -6 62 -8 63 C-6.36199282 52.51675405 -6.36199282 52.51675405 -4.375 48.0625 C-1.99239046 42.20877909 -1.90850779 35.06537851 -4.01953125 29.13671875 C-4.50486328 28.07904297 -4.50486328 28.07904297 -5 27 C-5.66 27 -6.32 27 -7 27 C-7 25.02 -7 23.04 -7 21 C-6.01 21 -5.02 21 -4 21 C-5.13335337 17.07685373 -6.08763178 14.7958735 -9 12 C-12 6.55555556 -12 6.55555556 -12 4 C-12.66 4 -13.32 4 -14 4 C-14 3.34 -14 2.68 -14 2 C-9.38 1.67 -4.76 1.34 0 1 C0 0.67 0 0.34 0 0 Z " fill="#BDB0B6" transform="translate(150,49)"/>
<path d="M0 0 C0.66 0.33 1.32 0.66 2 1 C1.113125 1.70125 0.22625 2.4025 -0.6875 3.125 C-2.98991271 5.02462656 -4.89221836 6.97779531 -6.75 9.3125 C-7.4925 10.199375 -8.235 11.08625 -9 12 C-9.66 12 -10.32 12 -11 12 C-11.103125 12.804375 -11.20625 13.60875 -11.3125 14.4375 C-11.84820655 17.21343393 -12.48939076 19.49615165 -13.4375 22.125 C-16.97037252 32.49481337 -17.27242984 42.88555457 -17.125 53.75 C-17.11597656 55.03132813 -17.10695313 56.31265625 -17.09765625 57.6328125 C-17.07435327 60.75541221 -17.04164054 63.87760025 -17 67 C-16.195625 67.144375 -15.39125 67.28875 -14.5625 67.4375 C-12 68 -12 68 -11 69 C-10.77471076 70.99541896 -10.55238905 72.99159864 -10.37890625 74.9921875 C-10.07746158 77.30715407 -10.07746158 77.30715407 -8 80 C-9.65 80 -11.3 80 -13 80 C-12.67 81.98 -12.34 83.96 -12 86 C-13.32 86 -14.64 86 -16 86 C-16 85.34 -16 84.68 -16 84 C-16.99 84 -17.98 84 -19 84 C-19.07633893 76.18959851 -19.12872116 68.37929399 -19.16479492 60.56860352 C-19.1781397 57.91380224 -19.20028011 55.25949147 -19.22631836 52.60473633 C-19.26288673 48.77939748 -19.27976928 44.95438858 -19.29296875 41.12890625 C-19.31619453 39.36118614 -19.31619453 39.36118614 -19.33988953 37.55775452 C-19.34125732 30.79412743 -18.67815317 25.22920889 -16 19 C-15.51825569 17.87163475 -15.51825569 17.87163475 -15.02677917 16.72047424 C-13.06061696 12.28795101 -11.01509209 9.83994319 -7 7 C-5.31384218 5.35305515 -3.64429829 3.68873879 -2 2 C-1.34 1.34 -0.68 0.68 0 0 Z " fill="#764D48" transform="translate(46,42)"/>
<path d="M0 0 C0.33 0 0.66 0 1 0 C1.06058594 0.60328125 1.12117188 1.2065625 1.18359375 1.828125 C1.26738281 2.62734375 1.35117188 3.4265625 1.4375 4.25 C1.51871094 5.03890625 1.59992188 5.8278125 1.68359375 6.640625 C1.90748012 8.98480691 1.90748012 8.98480691 2.76171875 11.015625 C3 13 3 13 1.5234375 15.21875 C-6.22536775 23.4465723 -6.22536775 23.4465723 -10 26 C-10.66 26 -11.32 26 -12 26 C-12 23.36 -12 20.72 -12 18 C-12.33 18.99 -12.66 19.98 -13 21 C-27.93387901 22.74088758 -27.93387901 22.74088758 -35 19 C-35.33 18.34 -35.66 17.68 -36 17 C-34.87980469 17.02320313 -33.75960937 17.04640625 -32.60546875 17.0703125 C-31.13281916 17.08907237 -29.66016237 17.10727234 -28.1875 17.125 C-27.08051758 17.15013672 -27.08051758 17.15013672 -25.95117188 17.17578125 C-22.08753574 17.21074628 -20.29096332 17.19397555 -17 15 C-16.7497843 11.91634129 -16.7497843 11.91634129 -17 9 C-15.39679026 8.80448662 -13.79237014 8.61888017 -12.1875 8.4375 C-11.29417969 8.33308594 -10.40085937 8.22867188 -9.48046875 8.12109375 C-7 8 -7 8 -4 9 C-4 9.66 -4 10.32 -4 11 C-3.01 11.33 -2.02 11.66 -1 12 C-0.67 8.04 -0.34 4.08 0 0 Z " fill="#5E3233" transform="translate(111,155)"/>
<path d="M0 0 C1.51400391 0.01740234 1.51400391 0.01740234 3.05859375 0.03515625 C4.07050781 0.04417969 5.08242187 0.05320313 6.125 0.0625 C6.90746094 0.07410156 7.68992188 0.08570313 8.49609375 0.09765625 C6.75390625 3.94140625 6.75390625 3.94140625 4.43359375 5.34765625 C-0.58536571 6.62909271 -5.57739658 6.73982614 -10.50390625 5.09765625 C-10.50390625 6.08765625 -10.50390625 7.07765625 -10.50390625 8.09765625 C-12.15390625 8.42765625 -13.80390625 8.75765625 -15.50390625 9.09765625 C-15.50390625 9.75765625 -15.50390625 10.41765625 -15.50390625 11.09765625 C-23.17057292 11.09765625 -30.83723958 11.09765625 -38.50390625 11.09765625 C-38.50390625 10.10765625 -38.50390625 9.11765625 -38.50390625 8.09765625 C-37.84390625 8.09765625 -37.18390625 8.09765625 -36.50390625 8.09765625 C-36.50390625 7.10765625 -36.50390625 6.11765625 -36.50390625 5.09765625 C-35.92382812 5.21625 -35.34375 5.33484375 -34.74609375 5.45703125 C-33.96492188 5.5859375 -33.18375 5.71484375 -32.37890625 5.84765625 C-31.61320312 5.986875 -30.8475 6.12609375 -30.05859375 6.26953125 C-27.29529814 6.30800186 -27.29529814 6.30800186 -24.78125 4.15625 C-20.49032344 1.46099577 -17.1530098 1.46983873 -12.19140625 1.41015625 C-7.84873056 1.29793362 -3.93873726 0.1536169 0 0 Z " fill="#EDDFDE" transform="translate(145.50390625,176.90234375)"/>
<path d="M0 0 C0.69512695 0.00328812 1.39025391 0.00657623 2.10644531 0.00996399 C4.3216021 0.02567686 6.53523529 0.06970816 8.75 0.11328125 C10.23957099 0.12477685 11.72915623 0.13456076 13.21875 0.14257812 C25.01203451 0.25353734 25.01203451 0.25353734 28.75 1.42578125 C28.75 2.08578125 28.75 2.74578125 28.75 3.42578125 C29.37648437 3.63074219 30.00296875 3.83570313 30.6484375 4.046875 C31.46570313 4.31628906 32.28296875 4.58570313 33.125 4.86328125 C34.34316406 5.26353516 34.34316406 5.26353516 35.5859375 5.671875 C37.75 6.42578125 37.75 6.42578125 39.75 7.42578125 C39.75 8.08578125 39.75 8.74578125 39.75 9.42578125 C46.68 9.92078125 46.68 9.92078125 53.75 10.42578125 C53.75 13.83677293 53.25854594 17.05666439 52.75 20.42578125 C53.61625 20.38453125 54.4825 20.34328125 55.375 20.30078125 C58.87358468 20.43035846 61.49551597 21.18597781 64.75 22.42578125 C64.75 22.75578125 64.75 23.08578125 64.75 23.42578125 C58.2342033 23.96876431 53.16649552 23.30955142 47.75 19.42578125 C47.09 18.43578125 46.43 17.44578125 45.75 16.42578125 C44.96238281 16.11769531 44.17476562 15.80960938 43.36328125 15.4921875 C40.32968276 14.25426166 39.06045412 12.82590803 36.9375 10.36328125 C34.12353247 7.39923545 32.35334091 5.89784702 28.25 5.42578125 C27.095 5.42578125 25.94 5.42578125 24.75 5.42578125 C24.255 3.94078125 24.255 3.94078125 23.75 2.42578125 C19.56891433 2.54447752 15.38804212 2.66875398 11.20727539 2.7980957 C9.78642225 2.84127929 8.36552274 2.88296533 6.94458008 2.9230957 C4.8965053 2.9812022 2.84866035 3.04477763 0.80078125 3.109375 C-0.42987061 3.14603271 -1.66052246 3.18269043 -2.9284668 3.22045898 C-5.80826984 3.39847548 -8.44587088 3.7718723 -11.25 4.42578125 C-7.85062014 0.08910395 -5.38125247 -0.06063289 0 0 Z " fill="#B0A4AC" transform="translate(82.25,23.57421875)"/>
<path d="M0 0 C0.33 0 0.66 0 1 0 C1 16.17 1 32.34 1 49 C1.99 49 2.98 49 4 49 C4 49.66 4 50.32 4 51 C5.175625 51.0928125 5.175625 51.0928125 6.375 51.1875 C7.24125 51.455625 8.1075 51.72375 9 52 C10.3125 54.5625 10.3125 54.5625 11 57 C13.75383923 55.62308038 14.51483101 53.63279958 16 51 C16.33 51.99 16.66 52.98 17 54 C16.67 54.33 16.34 54.66 16 55 C15.76636119 56.84891946 15.58696365 58.70488031 15.4375 60.5625 C15.31181641 62.08037109 15.31181641 62.08037109 15.18359375 63.62890625 C15.09271484 64.80259766 15.09271484 64.80259766 15 66 C13.68 66 12.36 66 11 66 C11 66.66 11 67.32 11 68 C9.68 68 8.36 68 7 68 C5.50178941 64.62902617 5 62.79557881 5 59 C4.34 59 3.68 59 3 59 C-0.07223156 53.70715009 -1.49504791 49.8131922 -1.3125 43.5625 C-1.29703125 42.83820801 -1.2815625 42.11391602 -1.265625 41.36767578 C-1.22442266 39.64507482 -1.17215732 37.92272038 -1.11181641 36.20068359 C-0.97544127 32.29701969 -0.86903 28.39283289 -0.76171875 24.48828125 C-0.53293076 16.32465227 -0.27309226 8.16226284 0 0 Z " fill="#93594A" transform="translate(26,77)"/>
<path d="M0 0 C5.12583611 -0.10251672 9.94997778 -0.03590199 15 1 C15 1.33 15 1.66 15 2 C13.02 2.33 11.04 2.66 9 3 C10.32 4.32 11.64 5.64 13 7 C12.01 7.33 11.02 7.66 10 8 C9.34 7.67 8.68 7.34 8 7 C8.33 8.98 8.66 10.96 9 13 C3.78020872 13.1799928 -0.07262981 12.97094808 -5 11 C-4.525625 11.763125 -4.05125 12.52625 -3.5625 13.3125 C-2 16 -2 16 -1 19 C-3.86493176 18.9157373 -5.53415293 18.4739994 -7.5625 16.41015625 C-8.58803821 15.15643578 -9.59171352 13.88444271 -10.5703125 12.59375 C-12.0134095 10.72051898 -12.0134095 10.72051898 -15 10 C-15 9.01 -15 8.02 -15 7 C-14.38125 7.165 -13.7625 7.33 -13.125 7.5 C-8.74529271 8.20075317 -4.42571011 8.07734251 0 8 C0 5.36 0 2.72 0 0 Z " fill="#6E353B" transform="translate(74,153)"/>
<path d="M0 0 C2.60360012 2.2781501 3.87253373 4.17882305 4.40625 7.6171875 C4.61119267 14.1924316 3.49978303 19.39533578 1.015625 25.45703125 C0.08654585 27.78330251 -0.56645033 30.00060183 -1.125 32.4375 C-2 36 -2 36 -3.125 38.0625 C-4.45638311 41.0105626 -4.12243062 43.81680387 -4 47 C-3.030625 47.474375 -2.06125 47.94875 -1.0625 48.4375 C2 50 2 50 3 51 C4.47396739 51.20768229 5.9549126 51.36716017 7.4375 51.5 C11.78082192 51.89041096 11.78082192 51.89041096 14 53 C14 53.99 14 54.98 14 56 C8.93402467 56.17172798 5.69050998 56.01021856 1 54 C-0.485 54.495 -0.485 54.495 -2 55 C-2.99 54.67 -3.98 54.34 -5 54 C-6.98797032 49.60553928 -7.49466976 45.78180768 -7 41 C-6.13671875 39.1640625 -6.13671875 39.1640625 -5.0625 37.25 C-2.71907198 33.03838461 -2.54189988 29.27768784 -2.28125 24.52734375 C-2 22 -2 22 -0.4375 18.9375 C2.40590846 13.12705663 1.30170965 6.18312085 0 0 Z " fill="#917777" transform="translate(144,76)"/>
<path d="M0 0 C0.33 0 0.66 0 1 0 C1.66164392 8.33671344 0.48581825 9.92552715 -4 18 C-14.56 18 -25.12 18 -36 18 C-36.33 16.68 -36.66 15.36 -37 14 C-34.64575325 13.97273073 -32.29183038 13.95303281 -29.9375 13.9375 C-28.62652344 13.92589844 -27.31554687 13.91429687 -25.96484375 13.90234375 C-22 14 -22 14 -18.26953125 14.59375 C-15.0356211 14.99557396 -13.64465931 14.88627712 -10.75 13.5625 C-8.12218589 12.39049491 -6.97294064 12 -4 12 C-2.59724202 9.63284591 -2 8.2249694 -2 5.4375 C-2 3 -2 3 0 0 Z " fill="#411D1B" transform="translate(94,189)"/>
<path d="M0 0 C0 3.63 0 7.26 0 11 C0.66 11.33 1.32 11.66 2 12 C3.0703125 13.77734375 3.0703125 13.77734375 4.125 15.9375 C4.47820313 16.64777344 4.83140625 17.35804688 5.1953125 18.08984375 C6 20 6 20 6 22 C6.99 22.33 7.98 22.66 9 23 C9 23.66 9 24.32 9 25 C9.66 25.33 10.32 25.66 11 26 C7.78379541 26.35168375 6.37820781 26.2640439 3.68359375 24.3828125 C-2.5149146 18.15196411 -6.63266946 12.32629289 -7.25 3.375 C-7.1675 2.59125 -7.085 1.8075 -7 1 C-5 0 -5 0 0 0 Z " fill="#684330" transform="translate(39,172)"/>
<path d="M0 0 C3.63 0 7.26 0 11 0 C11 0.99 11 1.98 11 3 C10.01 3 9.02 3 8 3 C7.566875 3.86625 7.566875 3.86625 7.125 4.75 C6.568125 5.86375 6.568125 5.86375 6 7 C5.7834375 7.68707031 5.566875 8.37414062 5.34375 9.08203125 C4 11 4 11 1.0234375 11.71484375 C-6.12351781 12.15100698 -11.59319605 12.39183739 -18 9 C-18.33 8.34 -18.66 7.68 -19 7 C-17.87980469 7.02320313 -16.75960937 7.04640625 -15.60546875 7.0703125 C-14.13281916 7.08907237 -12.66016237 7.10727234 -11.1875 7.125 C-10.08051758 7.15013672 -10.08051758 7.15013672 -8.95117188 7.17578125 C-5.08753574 7.21074628 -3.29096332 7.19397555 0 5 C0 3.35 0 1.7 0 0 Z " fill="#3F151B" transform="translate(94,165)"/>
<path d="M0 0 C0.62261719 0.31710938 1.24523437 0.63421875 1.88671875 0.9609375 C6.18321806 2.39490088 10.31008848 2.46383986 14.8125 2.625 C15.69615234 2.66367188 16.57980469 2.70234375 17.49023438 2.7421875 C19.65982972 2.83600784 21.82988547 2.91907326 24 3 C23.125 7.875 23.125 7.875 22 9 C18.81415494 9.06018125 15.64409111 9.02008526 12.45898438 8.9609375 C8.60393177 8.83271185 8.60393177 8.83271185 5 10 C2.04798117 7.04798117 0.86722428 4.04704664 0 0 Z " fill="#61393F" transform="translate(69,164)"/>
<path d="M0 0 C7.35174806 -0.55253221 12.511583 0.48935892 19 4 C18.01 5.65 17.02 7.3 16 9 C10.08507728 8.54775239 4.64800112 7.8417395 -1 6 C-0.67 4.02 -0.34 2.04 0 0 Z " fill="#4B2121" transform="translate(102,124)"/>
<path d="M0 0 C1.75 3.375 1.75 3.375 3 7 C2.67 7.99 2.34 8.98 2 10 C0.37509046 10.02698189 -1.24994633 10.04638757 -2.875 10.0625 C-4.23238281 10.07990234 -4.23238281 10.07990234 -5.6171875 10.09765625 C-8 10 -8 10 -10 9 C-9.67 6.36 -9.34 3.72 -9 1 C-3.375 -1.125 -3.375 -1.125 0 0 Z " fill="#865153" transform="translate(72,152)"/>
<path d="M0 0 C1.87939453 -0.34057617 1.87939453 -0.34057617 4.1328125 -0.29296875 C4.93847656 -0.28330078 5.74414062 -0.27363281 6.57421875 -0.26367188 C7.41597656 -0.23853516 8.25773437 -0.21339844 9.125 -0.1875 C9.97449219 -0.17396484 10.82398437 -0.16042969 11.69921875 -0.14648438 C13.79974837 -0.11108219 15.89995293 -0.05727401 18 0 C18.66 1.65 19.32 3.3 20 5 C18.17168343 6.82831657 15.39629312 6.21612455 12.9375 6.25 C7.20967261 6.22476728 3.15602576 5.42636506 -2 3 C-1.34 2.01 -0.68 1.02 0 0 Z " fill="#572827" transform="translate(59,121)"/>
<path d="M0 0 C1.24546405 2.49092811 0.7767578 3.41080733 0 6 C0.99 6 1.98 6 3 6 C3 6.99 3 7.98 3 9 C5.31 9.33 7.62 9.66 10 10 C10 10.66 10 11.32 10 12 C16.435 11.505 16.435 11.505 23 11 C23 11.33 23 11.66 23 12 C21.00458132 12.68025637 19.00382009 13.34490497 17 14 C16.360625 14.226875 15.72125 14.45375 15.0625 14.6875 C11.93336248 15.16161175 9.1182063 14.5029365 6 14 C2.66963264 13.63536124 -0.66464017 13.31541632 -4 13 C-3.71812064 11.20676747 -3.4241719 9.41542874 -3.125 7.625 C-2.96257812 6.62726563 -2.80015625 5.62953125 -2.6328125 4.6015625 C-2 2 -2 2 0 0 Z " fill="#ADA1A4" transform="translate(104,181)"/>
<path d="M0 0 C0.33 0.66 0.66 1.32 1 2 C2.65 1.67 4.3 1.34 6 1 C6 2.32 6 3.64 6 5 C8.31 5 10.62 5 13 5 C13 5.33 13 5.66 13 6 C2.77 6 -7.46 6 -18 6 C-17.67 5.01 -17.34 4.02 -17 3 C-13.93466836 1.46733418 -10.73245728 1.89723529 -7.375 1.9375 C-6.31539062 1.94426758 -6.31539062 1.94426758 -5.234375 1.95117188 C-3.48954725 1.96296125 -1.744763 1.98089676 0 2 C0 1.34 0 0.68 0 0 Z " fill="#C1B2B7" transform="translate(94,18)"/>
<path d="M0 0 C1.77049689 -0.05410687 3.54146849 -0.09284119 5.3125 -0.125 C6.29863281 -0.14820313 7.28476563 -0.17140625 8.30078125 -0.1953125 C11 0 11 0 14 2 C13.40832031 2.02578125 12.81664062 2.0515625 12.20703125 2.078125 C6.97002551 2.45402753 3.70679379 2.96613617 0 7 C-0.6496875 8.36125 -0.6496875 8.36125 -1.3125 9.75 C-4.47498534 15.8407125 -9.84871193 20.92435596 -16 24 C-14.48317834 20.44723055 -12.36280005 18.1357298 -9.6875 15.375 C-5.32820761 10.65008954 -2.49680558 5.89697801 0 0 Z " fill="#AE8E89" transform="translate(121,155)"/>
<path d="M0 0 C2.95839355 -0.02689449 5.91654427 -0.04678741 8.875 -0.0625 C9.71675781 -0.07087891 10.55851562 -0.07925781 11.42578125 -0.08789062 C12.23144531 -0.09111328 13.03710938 -0.09433594 13.8671875 -0.09765625 C14.98262939 -0.10551147 14.98262939 -0.10551147 16.12060547 -0.11352539 C18 0 18 0 20 1 C20.625 4.0625 20.625 4.0625 21 7 C22.77067416 7.16834933 24.54154612 7.33461909 26.3125 7.5 C27.79169922 7.63921875 27.79169922 7.63921875 29.30078125 7.78125 C32.04702139 8.04038857 32.04702139 8.04038857 35 8 C35.33 7.34 35.66 6.68 36 6 C36.144375 6.7425 36.28875 7.485 36.4375 8.25 C36.90187492 10.52027739 37.41863569 12.75759479 38 15 C34.58436944 15 33.84191626 14.40289855 31.125 12.5 C27.82018692 10.34311102 25.99227291 9.6763022 22 10 C19.1875 9 19.1875 9 17 8 C17.33 6.02 17.66 4.04 18 2 C12.06 1.67 6.12 1.34 0 1 C0 0.67 0 0.34 0 0 Z " fill="#3A1E23" transform="translate(86,106)"/>
<path d="M0 0 C7.33333333 -0.36666667 7.33333333 -0.36666667 10.5 1.375 C12 3 12 3 12 5 C17.61 5.33 23.22 5.66 29 6 C24.11681973 9.25545351 18.70336899 8.70521849 13 8 C10.07026959 6.63722427 8.39557702 5.22844374 6 3 C6 3.66 6 4.32 6 5 C6 6.32 6 7.64 6 9 C1.83861737 9.08159574 -1.9472484 8.98248524 -6 8 C-6 7.67 -6 7.34 -6 7 C-3.36 7 -0.72 7 2 7 C2 6.01 2 5.02 2 4 C1.01 4 0.02 4 -1 4 C-0.67 2.68 -0.34 1.36 0 0 Z " fill="#44272E" transform="translate(72,101)"/>
<path d="M0 0 C0.66 0 1.32 0 2 0 C2.33 2.64 2.66 5.28 3 8 C3.66 8 4.32 8 5 8 C5.02691685 10.45840605 5.04679802 12.91651882 5.0625 15.375 C5.07087891 16.07367188 5.07925781 16.77234375 5.08789062 17.4921875 C5.11328125 22.7734375 5.11328125 22.7734375 4 25 C3.34 24.67 2.68 24.34 2 24 C2.66 22.35 3.32 20.7 4 19 C3.34 19 2.68 19 2 19 C0.390625 17.8359375 0.390625 17.8359375 -1 16 C-1.328125 13.4765625 -1.328125 13.4765625 -1.25 10.625 C-1.23453125 9.68914062 -1.2190625 8.75328125 -1.203125 7.7890625 C-1.00840527 5.11541088 -0.58897928 2.6124081 0 0 Z " fill="#CEB59C" transform="translate(37,146)"/>
<path d="M0 0 C0.33 0 0.66 0 1 0 C1.33 1.65 1.66 3.3 2 5 C4.64 5 7.28 5 10 5 C10 5.66 10 6.32 10 7 C2.33333333 7 -5.33333333 7 -13 7 C-13 6.01 -13 5.02 -13 4 C-12.34 4 -11.68 4 -11 4 C-11 3.01 -11 2.02 -11 1 C-10.37351562 1.09539062 -9.74703125 1.19078125 -9.1015625 1.2890625 C-7.87566406 1.45535156 -7.87566406 1.45535156 -6.625 1.625 C-5.81289062 1.74101562 -5.00078125 1.85703125 -4.1640625 1.9765625 C-3.44992188 1.98429688 -2.73578125 1.99203125 -2 2 C-1.34 1.34 -0.68 0.68 0 0 Z " fill="#E2D4CD" transform="translate(120,181)"/>
<path d="M0 0 C0.33 0.66 0.66 1.32 1 2 C3.58366245 1.85879984 6.16682885 1.71221667 8.75 1.5625 C9.47960937 1.52318359 10.20921875 1.48386719 10.9609375 1.44335938 C14.4272973 1.23852902 17.65333026 0.9147998 21 0 C20.67 0.99 20.34 1.98 20 3 C14.25642463 4.94871307 9.02685217 5.25111884 3 5 C3 5.66 3 6.32 3 7 C1.68 7 0.36 7 -1 7 C-1 6.34 -1 5.68 -1 5 C-3.31 4.67 -5.62 4.34 -8 4 C-8 3.34 -8 2.68 -8 2 C-6.865625 1.855625 -5.73125 1.71125 -4.5625 1.5625 C-1.19222799 1.38828522 -1.19222799 1.38828522 0 0 Z " fill="#C8BABA" transform="translate(115,186)"/>
<path d="M0 0 C0.33 0 0.66 0 1 0 C1 5.94 1 11.88 1 18 C2.65 18.33 4.3 18.66 6 19 C7.86353201 20.86353201 7.40484072 23.49837601 7.62109375 25.9921875 C7.92253842 28.30715407 7.92253842 28.30715407 10 31 C8.35 31 6.7 31 5 31 C5.33 32.98 5.66 34.96 6 37 C5.01 36.67 4.02 36.34 3 36 C1.75 29.375 1.75 29.375 4 26 C4.16699232 22.87478167 4.16699232 22.87478167 4 20 C2.68 20 1.36 20 0 20 C0 13.4 0 6.8 0 0 Z " fill="#542927" transform="translate(28,91)"/>
<path d="M0 0 C4.12379701 2.8978033 5.94805217 5.42975255 8 10 C8.556875 10.9075 9.11375 11.815 9.6875 12.75 C11 15 11 15 11 17 C11.66 17 12.32 17 13 17 C13 20.3 13 23.6 13 27 C13.99 27.33 14.98 27.66 16 28 C17.60769874 30.33116317 18.09530596 31.42816426 17.625 34.25 C17.315625 35.11625 17.315625 35.11625 17 36 C16.67 34.68 16.34 33.36 16 32 C14.515 32.495 14.515 32.495 13 33 C10.7391947 30.7391947 11.67363733 25.26062543 11.57421875 22.19921875 C10.89871421 18.43569344 9.71683338 17.5433031 7 15 C7 13.68 7 12.36 7 11 C6.34 11 5.68 11 5 11 C4.35165346 9.730447 3.70642185 8.45930294 3.0625 7.1875 C2.70285156 6.47980469 2.34320313 5.77210937 1.97265625 5.04296875 C1 3 1 3 0 0 Z " fill="#3A2F34" transform="translate(126,44)"/>
<path d="M0 0 C1.32 0 2.64 0 4 0 C6.86685605 8.36166347 7.62416795 16.17762605 7 25 C6.67 25.66 6.34 26.32 6 27 C5.34 26.67 4.68 26.34 4 26 C4.33 21.05 4.66 16.1 5 11 C4.34 11 3.68 11 3 11 C2.67 8.36 2.34 5.72 2 3 C1.01 3 0.02 3 -1 3 C-1 4.32 -1 5.64 -1 7 C-1.99 7 -2.98 7 -4 7 C-3.67 5.35 -3.34 3.7 -3 2 C-2.01 2 -1.02 2 0 2 C0 1.34 0 0.68 0 0 Z " fill="#A8826C" transform="translate(37,143)"/>
<path d="M0 0 C1.05692047 0.00848969 1.05692047 0.00848969 2.13519287 0.01715088 C4.37728928 0.03947422 6.61776488 0.08965746 8.859375 0.140625 C10.38278935 0.16069548 11.90622886 0.1789453 13.4296875 0.1953125 C17.1567733 0.23932382 20.88291587 0.30832128 24.609375 0.390625 C25.104375 2.370625 25.104375 2.370625 25.609375 4.390625 C26.929375 4.720625 28.249375 5.050625 29.609375 5.390625 C27.959375 5.390625 26.309375 5.390625 24.609375 5.390625 C24.114375 3.905625 24.114375 3.905625 23.609375 2.390625 C19.42828933 2.50932127 15.24741712 2.63359773 11.06665039 2.76293945 C9.64579725 2.80612304 8.22489774 2.84780908 6.80395508 2.88793945 C4.7558803 2.94604595 2.70803535 3.00962138 0.66015625 3.07421875 C-0.57049561 3.11087646 -1.80114746 3.14753418 -3.0690918 3.18530273 C-5.94889484 3.36331923 -8.58649588 3.73671605 -11.390625 4.390625 C-7.96840497 -0.0050265 -5.42844747 -0.08616583 0 0 Z " fill="#96878C" transform="translate(82.390625,23.609375)"/>
<path d="M0 0 C0.66 0 1.32 0 2 0 C2.32613281 0.60328125 2.65226563 1.2065625 2.98828125 1.828125 C3.42527344 2.62734375 3.86226562 3.4265625 4.3125 4.25 C4.74175781 5.03890625 5.17101562 5.8278125 5.61328125 6.640625 C6.94416845 9.02049171 6.94416845 9.02049171 8.625 11.09375 C10.45228541 13.62703204 10.6519852 15.93746979 11 19 C10.01 18.67 9.02 18.34 8 18 C7.34 18.99 6.68 19.98 6 21 C3.81313113 19.25050491 3.06260958 18.34795414 2.55859375 15.546875 C2.51863281 14.62390625 2.47867188 13.7009375 2.4375 12.75 C2.14678621 8.18942741 1.44187204 4.32561611 0 0 Z " fill="#7A6D75" transform="translate(136,53)"/>
<path d="M0 0 C0.66163651 0.0028299 1.32327301 0.00565979 2.00495911 0.00857544 C4.11416862 0.01975332 6.2229505 0.04485269 8.33203125 0.0703125 C9.76366573 0.08034543 11.19530689 0.08947074 12.62695312 0.09765625 C16.13295102 0.11968455 19.63869938 0.15419765 23.14453125 0.1953125 C23.63953125 1.1853125 23.63953125 1.1853125 24.14453125 2.1953125 C25.13453125 2.3809375 26.12453125 2.5665625 27.14453125 2.7578125 C32.8149815 4.16068897 36.36013066 9.02474859 40.14453125 13.1953125 C36.62420697 13.1953125 35.70599695 12.49179899 33.14453125 10.1953125 C33.14453125 9.5353125 33.14453125 8.8753125 33.14453125 8.1953125 C31.16453125 7.5353125 29.18453125 6.8753125 27.14453125 6.1953125 C27.14453125 5.5353125 27.14453125 4.8753125 27.14453125 4.1953125 C24.83453125 3.8653125 22.52453125 3.5353125 20.14453125 3.1953125 C20.14453125 2.5353125 20.14453125 1.8753125 20.14453125 1.1953125 C10.24453125 1.5253125 0.34453125 1.8553125 -9.85546875 2.1953125 C-6.1761743 -0.25755046 -4.38168968 -0.03697628 0 0 Z " fill="#514146" transform="translate(82.85546875,25.8046875)"/>
<path d="M0 0 C1.50433594 0.01353516 1.50433594 0.01353516 3.0390625 0.02734375 C3.80992187 0.03894531 4.58078125 0.05054688 5.375 0.0625 C5.375 1.7125 5.375 3.3625 5.375 5.0625 C2.80606162 6.34696919 0.60923663 6.39227144 -2.25 6.625 C-3.25289063 6.70878906 -4.25578125 6.79257813 -5.2890625 6.87890625 C-6.05992188 6.93949219 -6.83078125 7.00007812 -7.625 7.0625 C-7.625 5.0825 -7.625 3.1025 -7.625 1.0625 C-4.98041621 -0.25979189 -2.94738699 -0.03427194 0 0 Z " fill="#F6EAE2" transform="translate(128.625,179.9375)"/>
<path d="M0 0 C1 3 1 3 -0.0625 5.625 C-2 8 -2 8 -4.6875 8.8125 C-15.18644068 9.40677966 -15.18644068 9.40677966 -18 8 C-18 7.34 -18 6.68 -18 6 C-14.535 5.505 -14.535 5.505 -11 5 C-11.66 4.34 -12.32 3.68 -13 3 C-12.14535156 2.95101562 -11.29070312 2.90203125 -10.41015625 2.8515625 C-9.30542969 2.77679688 -8.20070313 2.70203125 -7.0625 2.625 C-5.40927734 2.52058594 -5.40927734 2.52058594 -3.72265625 2.4140625 C-2.82417969 2.27742188 -1.92570312 2.14078125 -1 2 C-0.67 1.34 -0.34 0.68 0 0 Z " fill="#6F3A3A" transform="translate(79,124)"/>
<path d="M0 0 C0.33 0 0.66 0 1 0 C1.33 17.82 1.66 35.64 2 54 C-1 51 -1 51 -1.328125 47.9296875 C-1.31850135 46.5779084 -1.29080486 45.22619737 -1.25 43.875 C-1.23904297 43.12814941 -1.22808594 42.38129883 -1.21679688 41.61181641 C-1.16557115 38.74039196 -1.08372779 35.87066708 -1 33 C-0.96268993 31.64063049 -0.92559447 30.28125509 -0.88867188 28.921875 C-0.6239146 19.2801862 -0.32253166 9.63992218 0 0 Z " fill="#92726A" transform="translate(26,77)"/>
<path d="M0 0 C2.97 0.495 2.97 0.495 6 1 C6 1.66 6 2.32 6 3 C6.86625 3.144375 7.7325 3.28875 8.625 3.4375 C10.875 3.8125 13.125 4.1875 15.375 4.5625 C16.674375 4.7790625 16.674375 4.7790625 18 5 C16 8 16 8 14.3125 8.75 C10.84419262 9.12495215 8.38512431 8.95021033 5 8 C0 2.9 0 2.9 0 0 Z " fill="#B7816F" transform="translate(160,130)"/>
<path d="M0 0 C2.97 0.495 2.97 0.495 6 1 C6 1.66 6 2.32 6 3 C7.32 3.66 8.64 4.32 10 5 C8.68 5 7.36 5 6 5 C6 5.66 6 6.32 6 7 C7.65 7 9.3 7 11 7 C11 7.66 11 8.32 11 9 C9.0830014 8.68954268 7.16641277 8.37655329 5.25 8.0625 C4.18265625 7.88847656 3.1153125 7.71445313 2.015625 7.53515625 C-0.36347593 7.11295829 -2.66915211 6.62797116 -5 6 C-5 4.68 -5 3.36 -5 2 C-3.35 1.67 -1.7 1.34 0 1 C0 0.67 0 0.34 0 0 Z " fill="#5F2C2A" transform="translate(106,131)"/>
<path d="M0 0 C2.37507855 -0.02719556 4.74983964 -0.04693247 7.125 -0.0625 C8.12273437 -0.07506836 8.12273437 -0.07506836 9.140625 -0.08789062 C13.20681354 -0.10782292 17.0120092 0.21109839 21 1 C20.67 1.99 20.34 2.98 20 4 C13.73 4 7.46 4 1 4 C0.67 2.68 0.34 1.36 0 0 Z " fill="#4D2522" transform="translate(57,203)"/>
<path d="M0 0 C2.4375 0.375 2.4375 0.375 5 1 C6.9290958 4.8581916 6.18480401 9.6315091 6.1875 13.875 C6.19974609 14.88175781 6.21199219 15.88851562 6.22460938 16.92578125 C6.22654297 17.89644531 6.22847656 18.86710937 6.23046875 19.8671875 C6.23457764 20.75519043 6.23868652 21.64319336 6.24291992 22.55810547 C5.98565038 25.14424617 5.30628791 26.77442452 4 29 C3.34 29 2.68 29 2 29 C2.33 28.2575 2.66 27.515 3 26.75 C4.85600365 19.78998632 5.05598626 12.60917663 2 6 C1.34 6 0.68 6 0 6 C0 4.02 0 2.04 0 0 Z " fill="#A1959A" transform="translate(143,70)"/>
<path d="M0 0 C0.33 0 0.66 0 1 0 C1 1.65 1 3.3 1 5 C0.34 5 -0.32 5 -1 5 C-1.04898438 5.78503906 -1.09796875 6.57007813 -1.1484375 7.37890625 C-1.5620036 13.19022303 -2.11782148 18.478943 -4 24 C-5.65 24 -7.3 24 -9 24 C-8.54260948 21.53009117 -7.95512159 19.93170677 -6.5625 17.8125 C-4.78633974 14.61541153 -4.24077498 11.7826986 -3.5390625 8.2265625 C-2.81302319 5.22770448 -1.50994917 2.67672807 0 0 Z " fill="#7C656A" transform="translate(99,183)"/>
<path d="M0 0 C0.66 0.33 1.32 0.66 2 1 C1.113125 1.70125 0.22625 2.4025 -0.6875 3.125 C-2.98991271 5.02462656 -4.89221836 6.97779531 -6.75 9.3125 C-7.4925 10.199375 -8.235 11.08625 -9 12 C-9.66 12 -10.32 12 -11 12 C-11.185625 13.3303125 -11.185625 13.3303125 -11.375 14.6875 C-11.94412736 17.70387502 -12.76614436 20.20326054 -14 23 C-14.66 23 -15.32 23 -16 23 C-16.66 25.97 -17.32 28.94 -18 32 C-19.70129741 25.19481037 -16.25658899 18.78857996 -13.09765625 12.7109375 C-11.48447051 10.19643446 -9.42174822 8.71294387 -7 7 C-5.31384218 5.35305515 -3.64429829 3.68873879 -2 2 C-1.34 1.34 -0.68 0.68 0 0 Z " fill="#867776" transform="translate(46,42)"/>
<path d="M0 0 C5.75 -0.125 5.75 -0.125 8 1 C8.36629408 5.27343092 7.40814077 7.48812804 5 11 C4.01 10.34 3.02 9.68 2 9 C2 8.34 2 7.68 2 7 C1.01 6.67 0.02 6.34 -1 6 C-0.34 6 0.32 6 1 6 C0.67 4.02 0.34 2.04 0 0 Z " fill="#773733" transform="translate(33,122)"/>
<path d="M0 0 C4.875 1.875 4.875 1.875 6 3 C9.07604912 3.03171185 12.14015453 2.93146143 15.21484375 2.83984375 C18 3 18 3 20 5 C15.38 5 10.76 5 6 5 C7.65 8.3 9.3 11.6 11 15 C10.01 15.495 10.01 15.495 9 16 C5.79768752 10.75608378 2.63195191 5.55634291 0 0 Z " fill="#62575D" transform="translate(128,45)"/>
<path d="M0 0 C0.66 0.33 1.32 0.66 2 1 C1.67 1.33 1.34 1.66 1 2 C2.65 2.66 4.3 3.32 6 4 C0.63821074 6.68089463 -6.32606308 6.30937006 -12 5 C-14.9375 3.4375 -14.9375 3.4375 -17 2 C-14.00910037 0.50455019 -11.25847654 0.94594545 -7.9375 1 C-5.62530502 1.0375585 -3.31202706 1.04676667 -1 1 C-0.67 0.67 -0.34 0.34 0 0 Z " fill="#4A1C26" transform="translate(92,171)"/>
<path d="M0 0 C0.99 0.33 1.98 0.66 3 1 C3.33 2.65 3.66 4.3 4 6 C2.68 6 1.36 6 0 6 C-0.33 6.99 -0.66 7.98 -1 9 C-3.94389782 10.17755913 -4.89953913 10.03348696 -8 9 C-8 8.01 -8 7.02 -8 6 C-6.35546875 4.359375 -6.35546875 4.359375 -4.1875 2.75 C-3.47980469 2.20859375 -2.77210937 1.6671875 -2.04296875 1.109375 C-1.36878906 0.74328125 -0.69460937 0.3771875 0 0 Z " fill="#815758" transform="translate(61,96)"/>
<path d="M0 0 C0.6290625 0.19335938 1.258125 0.38671875 1.90625 0.5859375 C7.24216385 2.2092125 12.57759268 3.69460565 18 5 C18 5.66 18 6.32 18 7 C15.93867858 7.10864945 13.87568679 7.18588321 11.8125 7.25 C10.08966797 7.31960937 10.08966797 7.31960937 8.33203125 7.390625 C4.35233335 6.92407191 2.7448629 5.87409373 0 3 C0 2.01 0 1.02 0 0 Z " fill="#95676E" transform="translate(69,164)"/>
<path d="M0 0 C0 0.99 0 1.98 0 3 C-1.65 3.33 -3.3 3.66 -5 4 C-5 4.66 -5 5.32 -5 6 C-5.99 6.33 -6.98 6.66 -8 7 C-8.12117188 7.85464844 -8.24234375 8.70929688 -8.3671875 9.58984375 C-8.53476562 10.69457031 -8.70234375 11.79929687 -8.875 12.9375 C-9.11863281 14.59072266 -9.11863281 14.59072266 -9.3671875 16.27734375 C-9.68042969 17.62505859 -9.68042969 17.62505859 -10 19 C-10.66 19.33 -11.32 19.66 -12 20 C-11.9127395 17.74928094 -11.80455885 15.49936612 -11.6875 13.25 C-11.62949219 11.99703125 -11.57148437 10.7440625 -11.51171875 9.453125 C-10.98989055 5.9317805 -10.47102529 4.48897462 -8 2 C-5.06159553 0.53079777 -3.30252488 0 0 0 Z " fill="#5C3A34" transform="translate(53,102)"/>
<path d="M0 0 C0 3 0 3 -1 5 C-0.01 5.33 0.98 5.66 2 6 C2 6.66 2 7.32 2 8 C0.35 8 -1.3 8 -3 8 C-3 9.32 -3 10.64 -3 12 C-3.66 12 -4.32 12 -5 12 C-5 12.66 -5 13.32 -5 14 C-5.99 14 -6.98 14 -8 14 C-7.8794926 7.01057082 -7.8794926 7.01057082 -5.375 4.1328125 C-3.63253381 2.66436317 -1.87572762 1.29292974 0 0 Z " fill="#CDB7AE" transform="translate(112,173)"/>
<path d="M0 0 C-0.33 3.3 -0.66 6.6 -1 10 C-1.66 10 -2.32 10 -3 10 C-3.66 10.66 -4.32 11.32 -5 12 C-6.80230168 8.17010894 -7.19622241 5.21878192 -7 1 C-5 0 -5 0 0 0 Z " fill="#654735" transform="translate(39,172)"/>
<path d="M0 0 C5.67276511 -0.29341888 8.99067246 -0.00559652 14 3 C14 3.66 14 4.32 14 5 C12.25034642 5.05429959 10.50020213 5.09292823 8.75 5.125 C7.77546875 5.14820313 6.8009375 5.17140625 5.796875 5.1953125 C2.9803502 4.99862781 1.39050964 4.44568916 -1 3 C-0.67 2.01 -0.34 1.02 0 0 Z " fill="#2B0806" transform="translate(104,126)"/>
<path d="M0 0 C5.875 1.875 5.875 1.875 7 3 C8.47396739 3.20768229 9.9549126 3.36716017 11.4375 3.5 C15.78082192 3.89041096 15.78082192 3.89041096 18 5 C18 5.99 18 6.98 18 8 C9.94706994 8.4026465 9.94706994 8.4026465 6 5 C3.35065178 4.28566879 3.35065178 4.28566879 1 4 C0.67 2.68 0.34 1.36 0 0 Z " fill="#AD7F70" transform="translate(140,124)"/>
<path d="M0 0 C4.87885059 0.41818719 6.77959703 2.44929929 10 6 C10.763125 6.721875 11.52625 7.44375 12.3125 8.1875 C14 10 14 10 14 12 C11.13506824 11.9157373 9.46584707 11.4739994 7.4375 9.41015625 C6.41196179 8.15643578 5.40828648 6.88444271 4.4296875 5.59375 C2.9865905 3.72051898 2.9865905 3.72051898 0 3 C0 2.01 0 1.02 0 0 Z " fill="#430E0E" transform="translate(59,160)"/>
<path d="M0 0 C2.10388569 -0.05402274 4.20816714 -0.09280256 6.3125 -0.125 C8.07013672 -0.15980469 8.07013672 -0.15980469 9.86328125 -0.1953125 C13 0 13 0 16 2 C16 2.66 16 3.32 16 4 C4.47835991 4.3690205 4.47835991 4.3690205 -1 2 C-0.67 1.34 -0.34 0.68 0 0 Z " fill="#370B0C" transform="translate(60,122)"/>
<path d="M0 0 C2.63092914 2.30206299 3.87258158 4.22421349 4.44140625 7.6875 C4.73326685 15.06874872 3.25186971 19.9866414 -1 26 C-1.58984375 24.1640625 -1.58984375 24.1640625 -2 22 C-1.525625 21.13375 -1.05125 20.2675 -0.5625 19.375 C2.27409024 13.24796508 1.36778368 6.4969725 0 0 Z " fill="#736769" transform="translate(144,76)"/>
<path d="M0 0 C1.32 0.66 2.64 1.32 4 2 C4 2.66 4 3.32 4 4 C0.04 3.67 -3.92 3.34 -8 3 C-7.67 6.3 -7.34 9.6 -7 13 C-10.03869411 11.48065294 -10.64410306 9.01995228 -12 6 C-12 5.34 -12 4.68 -12 4 C-12.66 4 -13.32 4 -14 4 C-14 3.34 -14 2.68 -14 2 C-9.38 1.67 -4.76 1.34 0 1 C0 0.67 0 0.34 0 0 Z " fill="#ACA2AA" transform="translate(150,49)"/>
<path d="M0 0 C11.3440597 0.32799375 22.03963578 0.81989432 33 4 C33 4.33 33 4.66 33 5 C27.13935088 5.19391854 21.92631027 5.19733793 16.25390625 3.50390625 C12.12198541 2.58013192 7.87955448 2.53752259 3.66015625 2.34375 C2.34337891 2.17359375 2.34337891 2.17359375 1 2 C0.67 1.34 0.34 0.68 0 0 Z " fill="#C9A6A0" transform="translate(146,126)"/>
<path d="M0 0 C1.77049689 -0.05410687 3.54146849 -0.09284119 5.3125 -0.125 C6.29863281 -0.14820313 7.28476563 -0.17140625 8.30078125 -0.1953125 C11 0 11 0 14 2 C13.40832031 2.02578125 12.81664062 2.0515625 12.20703125 2.078125 C6.94005325 2.45617889 3.82618797 3.05786694 0 7 C-0.66 7.99 -1.32 8.98 -2 10 C-2.18311068 5.9715651 -1.94158017 3.51624755 0 0 Z " fill="#C6A19E" transform="translate(121,155)"/>
<path d="M0 0 C0.66 0 1.32 0 2 0 C2 0.66 2 1.32 2 2 C9.92 1.67 17.84 1.34 26 1 C26 1.33 26 1.66 26 2 C24.00458132 2.68025637 22.00382009 3.34490497 20 4 C19.360625 4.226875 18.72125 4.45375 18.0625 4.6875 C14.93336248 5.16161175 12.1182063 4.5029365 9 4 C5.66963264 3.63536124 2.33535983 3.31541632 -1 3 C-0.67 2.01 -0.34 1.02 0 0 Z " fill="#A498A0" transform="translate(101,191)"/>
<path d="M0 0 C-1.0828125 0.61875 -1.0828125 0.61875 -2.1875 1.25 C-8.08343902 4.91858428 -10.64019162 7.54157708 -13 14 C-13.66 14 -14.32 14 -15 14 C-14.38909774 7.52443609 -14.38909774 7.52443609 -12.5625 5.0625 C-11 4 -11 4 -9 4 C-8.67 3.01 -8.34 2.02 -8 1 C-2.59770115 -1.29885057 -2.59770115 -1.29885057 0 0 Z " fill="#793938" transform="translate(68,145)"/>
<path d="M0 0 C2.4375 0.75 2.4375 0.75 4.4375 2.75 C5.7575 3.41 7.0775 4.07 8.4375 4.75 C3.4875 5.08 -1.4625 5.41 -6.5625 5.75 C-5.47734541 1.40938165 -4.74860253 -0.4632783 0 0 Z " fill="#A35857" transform="translate(69.5625,137.25)"/>
<path d="M0 0 C2.8203125 0.0234375 2.8203125 0.0234375 6.125 0.375 C7.22070312 0.48585937 8.31640625 0.59671875 9.4453125 0.7109375 C10.28835937 0.80632812 11.13140625 0.90171875 12 1 C12 1.99 12 2.98 12 4 C6.34264585 5.55577239 3.20333134 4.24281523 -2 2 C-1.34 1.34 -0.68 0.68 0 0 Z " fill="#C48B73" transform="translate(173,132)"/>
<path d="M0 0 C3.10173292 0.24487365 4.58654118 0.58654118 6.8125 2.8125 C8 5 8 5 8 9 C6.02 9 4.04 9 2 9 C3.32 8.67 4.64 8.34 6 8 C5.34 6.35 4.68 4.7 4 3 C0.56661484 4.20632452 -1.50364585 5.38477184 -4 8 C-4.66 8 -5.32 8 -6 8 C-6 6 -6 6 -3.5625 3.4375 C-2.716875 2.633125 -1.87125 1.82875 -1 1 C-0.67 0.67 -0.34 0.34 0 0 Z " fill="#4E2F33" transform="translate(59,94)"/>
<path d="M0 0 C7.60154046 0.32978484 13.97319219 2.12782571 21 5 C21 5.33 21 5.66 21 6 C18.77011716 5.91249445 16.54103995 5.80430939 14.3125 5.6875 C13.07113281 5.62949219 11.82976562 5.57148438 10.55078125 5.51171875 C5.9113851 4.8431149 3.27790744 3.27790744 0 0 Z " fill="#BB9A97" transform="translate(153,161)"/>
<path d="M0 0 C-0.375 2.4375 -0.375 2.4375 -1 5 C-1.99 5.495 -1.99 5.495 -3 6 C-3 4.68 -3 3.36 -3 2 C-4.81495662 2.44850658 -6.62693134 2.90909571 -8.4375 3.375 C-9.44683594 3.63023437 -10.45617188 3.88546875 -11.49609375 4.1484375 C-14.15570324 4.72573954 -14.15570324 4.72573954 -15 7 C-15.66 6.67 -16.32 6.34 -17 6 C-11.79516879 0.21685421 -7.44167705 -0.25226024 0 0 Z " fill="#8B4343" transform="translate(74,142)"/>
<path d="M0 0 C0.66 0 1.32 0 2 0 C2.33 1.65 2.66 3.3 3 5 C2.38125 5.391875 1.7625 5.78375 1.125 6.1875 C-1.50998776 8.15024338 -1.50998776 8.15024338 -3 13 C-7.62 13 -12.24 13 -17 13 C-17 12.67 -17 12.34 -17 12 C-12.71 12 -8.42 12 -4 12 C-3.67 10.02 -3.34 8.04 -3 6 C-2.01 6 -1.02 6 0 6 C0 4.02 0 2.04 0 0 Z " fill="#BEACA9" transform="translate(181,170)"/>
<path d="M0 0 C0.66 0.66 1.32 1.32 2 2 C1.071875 2.4021875 1.071875 2.4021875 0.125 2.8125 C-2.2995233 3.95556848 -2.2995233 3.95556848 -4 7 C-4.99 7 -5.98 7 -7 7 C-7 7.66 -7 8.32 -7 9 C-7.66 9 -8.32 9 -9 9 C-9.66 10.32 -10.32 11.64 -11 13 C-11.33 11.68 -11.66 10.36 -12 9 C-10.37680325 7.68527053 -8.751385 6.37328338 -7.125 5.0625 C-6.22007813 4.33160156 -5.31515625 3.60070312 -4.3828125 2.84765625 C-2 1 -2 1 0 0 Z " fill="#97584C" transform="translate(61,142)"/>
<path d="M0 0 C0.66 0.33 1.32 0.66 2 1 C2 4 2 7 2 10 C-0.10934428 8.94532786 -2.1062146 7.78173061 -4.125 6.5625 C-4.84945312 6.13066406 -5.57390625 5.69882813 -6.3203125 5.25390625 C-7.15175781 4.63322266 -7.15175781 4.63322266 -8 4 C-8 3.34 -8 2.68 -8 2 C-5.33333333 2 -2.66666667 2 0 2 C0 1.34 0 0.68 0 0 Z " fill="#38171A" transform="translate(121,112)"/>
<path d="M0 0 C0 0.99 0 1.98 0 3 C-1.89611434 2.85786703 -3.79188394 2.71113093 -5.6875 2.5625 C-6.74324219 2.48128906 -7.79898438 2.40007812 -8.88671875 2.31640625 C-11.65086297 2.03548319 -14.28945741 1.59843148 -17 1 C-17 0.67 -17 0.34 -17 0 C-11.23073111 -1.40333568 -5.81856895 -0.67296616 0 0 Z " fill="#D4BCB3" transform="translate(185,128)"/>
<path d="M0 0 C0.33 0 0.66 0 1 0 C0.67 4.95 0.34 9.9 0 15 C-4 13 -4 13 -6 11 C-6.125 7.375 -6.125 7.375 -6 4 C-5.67 4.99 -5.34 5.98 -5 7 C-4.34 7.33 -3.68 7.66 -3 8 C-3.33 8.99 -3.66 9.98 -4 11 C-3.01 11 -2.02 11 -1 11 C-0.67 7.37 -0.34 3.74 0 0 Z " fill="#431715" transform="translate(41,108)"/>
<path d="M0 0 C1.05284747 3.29645533 0.93680928 5.79475212 0.44140625 9.203125 C0.30283203 10.1828125 0.16425781 11.1625 0.02148438 12.171875 C-0.12998047 13.18765625 -0.28144531 14.2034375 -0.4375 15.25 C-0.58509766 16.28125 -0.73269531 17.3125 -0.88476562 18.375 C-1.24969505 20.91773403 -1.62167522 23.45923037 -2 26 C-2.33 26 -2.66 26 -3 26 C-3.55353075 8.14350797 -3.55353075 8.14350797 0 0 Z " fill="#423434" transform="translate(30,65)"/>
<path d="M0 0 C0 0.99 0 1.98 0 3 C-0.33 3.33 -0.66 3.66 -1 4 C-1.23075082 5.34747084 -1.41153063 6.70377565 -1.5625 8.0625 C-1.706875 9.361875 -1.85125 10.66125 -2 12 C-2.99 12.33 -3.98 12.66 -5 13 C-5.33 14.65 -5.66 16.3 -6 18 C-6.33 18 -6.66 18 -7 18 C-6.67 15.03 -6.34 12.06 -6 9 C-5.34 9 -4.68 9 -4 9 C-4.0825 8.2575 -4.165 7.515 -4.25 6.75 C-3.92894816 3.21842973 -2.64734383 2.23369636 0 0 Z " fill="#998483" transform="translate(104,179)"/>
<path d="M0 0 C0.66 0 1.32 0 2 0 C1.67 0.99 1.34 1.98 1 3 C-2.3 3 -5.6 3 -9 3 C-9 5.64 -9 8.28 -9 11 C-9.66 11 -10.32 11 -11 11 C-11.36279456 9.71073008 -11.71496698 8.41846728 -12.0625 7.125 C-12.35833984 6.04605469 -12.35833984 6.04605469 -12.66015625 4.9453125 C-13 3 -13 3 -12 1 C-10.37509046 0.97301811 -8.75005367 0.95361243 -7.125 0.9375 C-6.22007812 0.92589844 -5.31515625 0.91429687 -4.3828125 0.90234375 C-2 1 -2 1 0 2 C0 1.34 0 0.68 0 0 Z " fill="#C2B7BF" transform="translate(154,51)"/>
<path d="M0 0 C3.63 1.98 7.26 3.96 11 6 C11 6.33 11 6.66 11 7 C7.37 7 3.74 7 0 7 C0.66 5.35 1.32 3.7 2 2 C1.34 2 0.68 2 0 2 C0 1.34 0 0.68 0 0 Z " fill="#DDC8C7" transform="translate(47,200)"/>
<path d="M0 0 C0.33 0 0.66 0 1 0 C1.59672183 7.51869512 0.14352972 11.74031045 -4 18 C-5.04116106 14.79377554 -5.13486303 14.27558967 -3.5625 11.0625 C-3.046875 10.051875 -2.53125 9.04125 -2 8 C-1.96125079 6.33378384 -1.9549714 4.66605828 -2 3 C-1.34 2.01 -0.68 1.02 0 0 Z " fill="#533435" transform="translate(94,189)"/>
<path d="M0 0 C0.66 0 1.32 0 2 0 C2.49842887 4.98428874 1.26433833 7.73342193 -1.04296875 11.96484375 C-2.45687397 14.97155648 -2.7254797 17.70575637 -3 21 C-3.33 21 -3.66 21 -4 21 C-4.33310884 14.75729368 -4.21833637 10.53553856 -1 5 C-0.30092586 2.26427415 -0.30092586 2.26427415 0 0 Z " fill="#5C4C4E" transform="translate(140,103)"/>
<path d="M0 0 C3.81936528 1.55603771 6.26044438 3.95604931 9 7 C9 7.66 9 8.32 9 9 C8.01 9 7.02 9 6 9 C5.67 9.66 5.34 10.32 5 11 C2.47613098 8.03719723 1.60357521 5.82264303 1 2 C0.67 1.34 0.34 0.68 0 0 Z " fill="#B3A8B0" transform="translate(143,62)"/>
<path d="M0 0 C0.66 0 1.32 0 2 0 C2.32613281 0.60328125 2.65226563 1.2065625 2.98828125 1.828125 C3.42527344 2.62734375 3.86226562 3.4265625 4.3125 4.25 C4.74175781 5.03890625 5.17101562 5.8278125 5.61328125 6.640625 C6.9396214 8.89727134 8.38884224 10.93998597 10 13 C9.34 13.66 8.68 14.32 8 15 C7.67 14.01 7.34 13.02 7 12 C6.34 12 5.68 12 5 12 C4.16180842 10.37750059 3.3295884 8.75191503 2.5 7.125 C2.0359375 6.22007813 1.571875 5.31515625 1.09375 4.3828125 C0 2 0 2 0 0 Z " fill="#91858C" transform="translate(136,53)"/>
<path d="M0 0 C0.66 0.33 1.32 0.66 2 1 C0.44523615 2.77816682 -1.11816024 4.54727102 -2.6875 6.3125 C-3.55761719 7.29863281 -4.42773438 8.28476562 -5.32421875 9.30078125 C-7.77193721 11.76993958 -9.94430961 13.3868157 -13 15 C-13 14.01 -13 13.02 -13 12 C-11.37946188 10.61096733 -9.70294787 9.28667172 -8 8 C-6.31337542 6.35353315 -4.64488294 4.68816933 -3 3 C-2 2 -1 1 0 0 Z " fill="#483635" transform="translate(48,42)"/>
<path d="M0 0 C0 2.97 0 5.94 0 9 C-1.65 8.67 -3.3 8.34 -5 8 C-5.25 5.6875 -5.25 5.6875 -5 3 C-1.79310345 0 -1.79310345 0 0 0 Z " fill="#95827C" transform="translate(185,176)"/>
<path d="M0 0 C3.09709467 1.37195861 5.15870525 2.93792501 7.5 5.375 C8.09941406 5.99246094 8.69882813 6.60992187 9.31640625 7.24609375 C10.14978516 8.11427734 10.14978516 8.11427734 11 9 C11.804375 9.804375 12.60875 10.60875 13.4375 11.4375 C13.953125 11.953125 14.46875 12.46875 15 13 C14.67 13.99 14.34 14.98 14 16 C12.03909808 13.89817699 10.08121556 11.79367717 8.125 9.6875 C7.56941406 9.09259766 7.01382813 8.49769531 6.44140625 7.88476562 C5.90644531 7.30791016 5.37148437 6.73105469 4.8203125 6.13671875 C4.32805176 5.60780029 3.83579102 5.07888184 3.32861328 4.53393555 C2 3 2 3 0 0 Z " fill="#65575D" transform="translate(113,29)"/>
<path d="M0 0 C4.29 0 8.58 0 13 0 C13 0.66 13 1.32 13 2 C9.10835652 3.29721449 6.10570774 3.13033993 2 3 C1.34 2.67 0.68 2.34 0 2 C0 1.34 0 0.68 0 0 Z " fill="#6A2B2B" transform="translate(61,130)"/>
<path d="M0 0 C0.625 1.8125 0.625 1.8125 1 4 C0.01 5.485 0.01 5.485 -1 7 C-1.02749478 9.06910593 -1.02749478 9.06910593 -0.625 11.1875 C-0.41875 12.445625 -0.2125 13.70375 0 15 C-0.66 15 -1.32 15 -2 15 C-4.44031962 11.33952058 -4.73696072 8.25894744 -4 4 C-2 1.5 -2 1.5 0 0 Z " fill="#7B3B36" transform="translate(32,113)"/>
<path d="M0 0 C4.29 0.33 8.58 0.66 13 1 C13 1.66 13 2.32 13 3 C9.79619983 5.13586678 8.98060033 5.23132175 5.3125 5.125 C4.50425781 5.10695312 3.69601563 5.08890625 2.86328125 5.0703125 C1.94095703 5.03550781 1.94095703 5.03550781 1 5 C1 4.67 1 4.34 1 4 C3.31 4 5.62 4 8 4 C8 3.34 8 2.68 8 2 C5.36 1.67 2.72 1.34 0 1 C0 0.67 0 0.34 0 0 Z " fill="#794E58" transform="translate(79,167)"/>
<path d="M0 0 C3.63 0 7.26 0 11 0 C9.68 0.33 8.36 0.66 7 1 C7 1.66 7 2.32 7 3 C8.65 3 10.3 3 12 3 C12 3.66 12 4.32 12 5 C10.37247769 4.74476126 8.74796804 4.47025506 7.125 4.1875 C6.22007813 4.03667969 5.31515625 3.88585937 4.3828125 3.73046875 C2 3 2 3 0 0 Z " fill="#582121" transform="translate(105,135)"/>
<path d="M0 0 C0.66 0.33 1.32 0.66 2 1 C1.71935082 3.31386295 1.42518311 5.62609008 1.125 7.9375 C0.96257813 9.22527344 0.80015625 10.51304688 0.6328125 11.83984375 C0.42398438 12.88269531 0.21515625 13.92554687 0 15 C-0.99 15.495 -0.99 15.495 -2 16 C-2.20413361 10.26157749 -2.27141454 5.39460953 0 0 Z " fill="#83574B" transform="translate(45,108)"/>
<path d="M0 0 C-3 2 -3 2 -5 2 C-4.855625 2.68707031 -4.71125 3.37414062 -4.5625 4.08203125 C-4.376875 4.98308594 -4.19125 5.88414062 -4 6.8125 C-3.814375 7.70582031 -3.62875 8.59914062 -3.4375 9.51953125 C-3 12 -3 12 -3 15 C-6.09902323 11.90097677 -5.9898579 9.60852615 -6.0625 5.25 C-6.041875 4.1775 -6.02125 3.105 -6 2 C-6.66 2 -7.32 2 -8 2 C-8 1.34 -8 0.68 -8 0 C-4.94736336 -0.98120464 -3.05263664 -0.98120464 0 0 Z " fill="#BFA794" transform="translate(37,171)"/>
<path d="M0 0 C4.51650194 0.53135317 7.42058156 2.23408575 11 5 C11.33 5.99 11.66 6.98 12 8 C7.44328408 6.48109469 3.68276708 4.04597738 0 1 C0 0.67 0 0.34 0 0 Z " fill="#6F4E40" transform="translate(46,198)"/>
<path d="M0 0 C4.7517398 0.43197635 6.92000054 1.32769295 10 5 C7 6 7 6 4 5 C4 4.34 4 3.68 4 3 C2.68 3 1.36 3 0 3 C0 2.01 0 1.02 0 0 Z " fill="#5D292A" transform="translate(77,155)"/>
<path d="M0 0 C0 3 0 3 -1.375 4.6875 C-3 6 -3 6 -5 6 C-5.28875 6.94875 -5.5775 7.8975 -5.875 8.875 C-7 12 -7 12 -9 14 C-9.36667611 9.72211203 -8.60609964 7.41488918 -6 4 C-3.375 2.25 -3.375 2.25 -1 1 C-0.67 0.67 -0.34 0.34 0 0 Z " fill="#6C4642" transform="translate(104,177)"/>
<path d="M0 0 C1.65 0.33 3.3 0.66 5 1 C4.67 1.99 4.34 2.98 4 4 C-0.16138263 4.08159574 -3.9472484 3.98248524 -8 3 C-8 2.67 -8 2.34 -8 2 C-5.36 2 -2.72 2 0 2 C0 1.34 0 0.68 0 0 Z " fill="#412126" transform="translate(74,106)"/>
<path d="M0 0 C4.95 0.33 9.9 0.66 15 1 C15 1.33 15 1.66 15 2 C14.21625 2.12375 13.4325 2.2475 12.625 2.375 C9.85942178 2.79117993 9.85942178 2.79117993 8 5 C1.125 2.25 1.125 2.25 0 0 Z " fill="#55262B" transform="translate(75,172)"/>
<path d="M0 0 C0.33 0 0.66 0 1 0 C1.63019694 8.19256018 1.63019694 8.19256018 -1 11.5625 C-1.99 12.2740625 -1.99 12.2740625 -3 13 C-3.38281159 7.76824163 -2.21854707 4.62197306 0 0 Z " fill="#432021" transform="translate(135,119)"/>
<path d="M0 0 C0.54140625 0.23589844 1.0828125 0.47179687 1.640625 0.71484375 C0.650625 0.71484375 -0.339375 0.71484375 -1.359375 0.71484375 C-1.689375 1.70484375 -2.019375 2.69484375 -2.359375 3.71484375 C-4.35546875 4.91796875 -4.35546875 4.91796875 -6.796875 5.96484375 C-7.59996094 6.320625 -8.40304688 6.67640625 -9.23046875 7.04296875 C-11.359375 7.71484375 -11.359375 7.71484375 -13.359375 6.71484375 C-11.61979359 5.51213316 -9.86727755 4.32811365 -8.109375 3.15234375 C-6.64757813 2.16041016 -6.64757813 2.16041016 -5.15625 1.1484375 C-2.359375 -0.28515625 -2.359375 -0.28515625 0 0 Z " fill="#978486" transform="translate(69.359375,28.28515625)"/>
<path d="M0 0 C0.99 0 1.98 0 3 0 C3 2.31 3 4.62 3 7 C1.68 7 0.36 7 -1 7 C-1.04254356 5.00045254 -1.04080783 2.99958364 -1 1 C-0.67 0.67 -0.34 0.34 0 0 Z " fill="#8D765E" transform="translate(31,153)"/>
<path d="M0 0 C1.98 0 3.96 0 6 0 C7.4783226 2.95664519 7.06032783 5.74229737 7 9 C5.23537317 5.91190305 5 4.76687864 5 1 C4.01 1 3.02 1 2 1 C2 2.32 2 3.64 2 5 C1.01 5 0.02 5 -1 5 C-0.67 3.35 -0.34 1.7 0 0 Z " fill="#AE9077" transform="translate(34,145)"/>
<path d="M0 0 C4.95 0 9.9 0 15 0 C11.96739103 2.02173932 10.91309963 2.29338438 7.4375 2.5625 C4.09342768 2.81460438 4.09342768 2.81460438 1 4 C0.67 2.68 0.34 1.36 0 0 Z " fill="#5D332C" transform="translate(57,203)"/>
<path d="M0 0 C3.63 0 7.26 0 11 0 C10.01 0.33 9.02 0.66 8 1 C8 1.66 8 2.32 8 3 C5.36 3.33 2.72 3.66 0 4 C0 2.68 0 1.36 0 0 Z " fill="#DFCECB" transform="translate(162,178)"/>
<path d="M0 0 C0.33 0 0.66 0 1 0 C1.02691685 2.45840605 1.04679802 4.91651882 1.0625 7.375 C1.07087891 8.07367188 1.07925781 8.77234375 1.08789062 9.4921875 C1.11328125 14.7734375 1.11328125 14.7734375 0 17 C-0.66 16.67 -1.32 16.34 -2 16 C-1.814375 15.0925 -1.62875 14.185 -1.4375 13.25 C-1.04265379 10.31685676 -1.05308428 8.7355343 -2 6 C-1.34 6 -0.68 6 0 6 C0 4.02 0 2.04 0 0 Z " fill="#BEA38C" transform="translate(41,154)"/>
<path d="M0 0 C0.99 0.33 1.98 0.66 3 1 C0.63055987 3.61885488 -1.83733102 5.41866551 -5 7 C-5.99 6.67 -6.98 6.34 -8 6 C-6.7391988 4.96680187 -5.46596742 3.94875621 -4.1875 2.9375 C-3.47980469 2.36902344 -2.77210937 1.80054688 -2.04296875 1.21484375 C-1.36878906 0.81394531 -0.69460937 0.41304687 0 0 Z " fill="#513D3F" transform="translate(58,35)"/>
<path d="M0 0 C1.32 0 2.64 0 4 0 C4 0.66 4 1.32 4 2 C6.31 2.66 8.62 3.32 11 4 C11.33 5.32 11.66 6.64 12 8 C10.9275 7.360625 9.855 6.72125 8.75 6.0625 C6.62373504 4.8315045 5.02942837 4.00696988 2.625 3.4375 C2.08875 3.293125 1.5525 3.14875 1 3 C0.67 2.01 0.34 1.02 0 0 Z " fill="#9F9097" transform="translate(107,25)"/>
<path d="M0 0 C3.3 0 6.6 0 10 0 C10 0.99 10 1.98 10 3 C6.70772079 3 4.14445451 2.84985257 1 2 C0.67 1.34 0.34 0.68 0 0 Z " fill="#AC6F5C" transform="translate(164,136)"/>
<path d="M0 0 C5.75 -0.125 5.75 -0.125 8 1 C7.67 2.32 7.34 3.64 7 5 C4.69 4.01 2.38 3.02 0 2 C0 1.34 0 0.68 0 0 Z " fill="#BBAEB6" transform="translate(111,25)"/>
<path d="M0 0 C0.66 0.33 1.32 0.66 2 1 C1.34 4.3 0.68 7.6 0 11 C-1.9955516 7.00889681 -2.19546065 5.30013434 -2 1 C-1.34 0.67 -0.68 0.34 0 0 Z " fill="#725947" transform="translate(34,172)"/>
<path d="M0 0 C0.33 0 0.66 0 1 0 C1.125 6.75 1.125 6.75 0 9 C-1.65 9 -3.3 9 -5 9 C-5 8.01 -5 7.02 -5 6 C-3.35 6 -1.7 6 0 6 C0 4.02 0 2.04 0 0 Z " fill="#AE977F" transform="translate(34,154)"/>
<path d="M0 0 C2.97 0.33 5.94 0.66 9 1 C9 1.66 9 2.32 9 3 C6.36 3 3.72 3 1 3 C0.67 2.01 0.34 1.02 0 0 Z " fill="#2D0B0D" transform="translate(65,105)"/>
<path d="M0 0 C0.66 0 1.32 0 2 0 C2 0.66 2 1.32 2 2 C5.63 2 9.26 2 13 2 C8.91240337 4.04379831 8.01314435 4.18594005 3.75 3.625 C2.85796875 3.51414063 1.9659375 3.40328125 1.046875 3.2890625 C0.37140625 3.19367188 -0.3040625 3.09828125 -1 3 C-0.67 2.01 -0.34 1.02 0 0 Z " fill="#978F9A" transform="translate(101,191)"/>
<path d="M0 0 C2.31 0 4.62 0 7 0 C7 0.66 7 1.32 7 2 C4.35261084 3.4606285 3.10551666 4 0 4 C0 2.68 0 1.36 0 0 Z " fill="#2F060B" transform="translate(96,166)"/>
<path d="M0 0 C2.12508244 3.18762365 2.5020163 5.26512223 3 9 C2.01 8.67 1.02 8.34 0 8 C-0.38063221 5.6739143 -0.71269945 3.33944736 -1 1 C-0.67 0.67 -0.34 0.34 0 0 Z " fill="#6B2622" transform="translate(31,119)"/>
<path d="M0 0 C2.375 0.25 2.375 0.25 5 1 C6.3125 3.0625 6.3125 3.0625 7 5 C4.625 4.75 4.625 4.75 2 4 C0.6875 1.9375 0.6875 1.9375 0 0 Z " fill="#5C2526" transform="translate(66,167)"/>
<path d="M0 0 C2.97 0.495 2.97 0.495 6 1 C6.33 2.98 6.66 4.96 7 7 C6.401875 6.360625 5.80375 5.72125 5.1875 5.0625 C3.09189663 2.79689611 3.09189663 2.79689611 0 2 C0 1.34 0 0.68 0 0 Z " fill="#311A22" transform="translate(60,92)"/>
<path d="M0 0 C1.32 0 2.64 0 4 0 C4 1.32 4 2.64 4 4 C2.35 4 0.7 4 -1 4 C-0.67 2.68 -0.34 1.36 0 0 Z " fill="#B7ADB7" transform="translate(122,203)"/>
<path d="M0 0 C1.32 0 2.64 0 4 0 C4 1.32 4 2.64 4 4 C2.35 4 0.7 4 -1 4 C-0.67 2.68 -0.34 1.36 0 0 Z " fill="#300D0D" transform="translate(85,203)"/>
<path d="M0 0 C0.66 0.66 1.32 1.32 2 2 C1.360625 2.28875 0.72125 2.5775 0.0625 2.875 C-2.15206079 3.82823451 -2.15206079 3.82823451 -3 6 C-4.32 5.67 -5.64 5.34 -7 5 C-2.25 1.125 -2.25 1.125 0 0 Z " fill="#A15A56" transform="translate(61,142)"/>
<path d="M0 0 C0.66 0.33 1.32 0.66 2 1 C1.67 1.66 1.34 2.32 1 3 C3.64 3 6.28 3 9 3 C9 3.33 9 3.66 9 4 C5.37 4.33 1.74 4.66 -2 5 C-1.34 3.35 -0.68 1.7 0 0 Z " fill="#673732" transform="translate(57,105)"/>
<path d="M0 0 C2.9375 0.75 2.9375 0.75 6 2 C6.875 4.125 6.875 4.125 7 6 C3.63279613 4.60667426 2.0140476 3.0210714 0 0 Z " fill="#8D7F86" transform="translate(119,33)"/>
<path d="M0 0 C0.33 0.99 0.66 1.98 1 3 C-3.75 7 -3.75 7 -6 7 C-4.77065985 3.31197956 -3.06140622 2.27643027 0 0 Z " fill="#BAADAD" transform="translate(139,200)"/>
<path d="M0 0 C2.64 0 5.28 0 8 0 C8 0.33 8 0.66 8 1 C6.35 1 4.7 1 3 1 C3 1.99 3 2.98 3 4 C1.68 3.67 0.36 3.34 -1 3 C-0.67 2.01 -0.34 1.02 0 0 Z " fill="#340C0A" transform="translate(104,126)"/>
<path d="M0 0 C1.98 0.66 3.96 1.32 6 2 C6 2.99 6 3.98 6 5 C4.35 4.67 2.7 4.34 1 4 C0.67 2.68 0.34 1.36 0 0 Z " fill="#A9827F" transform="translate(140,124)"/>
<path d="M0 0 C0.99 0.495 0.99 0.495 2 1 C1.67 1.66 1.34 2.32 1 3 C1.99 3 2.98 3 4 3 C3.67 4.32 3.34 5.64 3 7 C2.01 7 1.02 7 0 7 C0 4.69 0 2.38 0 0 Z " fill="#240608" transform="translate(130,119)"/>
<path d="M0 0 C0.99 0.33 1.98 0.66 3 1 C3 1.66 3 2.32 3 3 C-2.625 5 -2.625 5 -6 5 C-1.60546875 0.99609375 -1.60546875 0.99609375 0 0 Z " fill="#6A494C" transform="translate(61,96)"/>
<path d="M0 0 C1.39195915 4.17587745 -0.17676781 6.13474776 -2 10 C-2.33 10 -2.66 10 -3 10 C-3.36923077 4.58461538 -3.36923077 4.58461538 -1.5 1.625 C-1.005 1.08875 -0.51 0.5525 0 0 Z " fill="#665655" transform="translate(34,55)"/>
<path d="M0 0 C1.9375 0.6875 1.9375 0.6875 4 2 C4.75 4.625 4.75 4.625 5 7 C3.29115995 5.37660195 1.62553283 3.70680947 0 2 C0 1.34 0 0.68 0 0 Z " fill="#6A4C3D" transform="translate(35,185)"/>
<path d="M0 0 C1.98 0.66 3.96 1.32 6 2 C6 2.66 6 3.32 6 4 C3.69 4 1.38 4 -1 4 C-0.67 2.68 -0.34 1.36 0 0 Z " fill="#AC9793" transform="translate(179,183)"/>
<path d="M0 0 C1.32 0 2.64 0 4 0 C3.34 1.32 2.68 2.64 2 4 C0.68 4 -0.64 4 -2 4 C-2 3.34 -2 2.68 -2 2 C-1.34 2 -0.68 2 0 2 C0 1.34 0 0.68 0 0 Z " fill="#F4E4DD" transform="translate(109,183)"/>
<path d="M0 0 C0.33 0 0.66 0 1 0 C1 2.31 1 4.62 1 7 C0.01 6.67 -0.98 6.34 -2 6 C-1.125 1.125 -1.125 1.125 0 0 Z " fill="#75645C" transform="translate(184,176)"/>
<path d="M0 0 C2.4375 0.375 2.4375 0.375 5 1 C5.33 1.66 5.66 2.32 6 3 C5.34 3.66 4.68 4.32 4 5 C2.68 4.34 1.36 3.68 0 3 C0 2.01 0 1.02 0 0 Z " fill="#531E1C" transform="translate(59,160)"/>
<path d="M0 0 C1.65 0 3.3 0 5 0 C5.33 0.66 5.66 1.32 6 2 C4.02 2.66 2.04 3.32 0 4 C0 2.68 0 1.36 0 0 Z " fill="#4B2D35" transform="translate(74,102)"/>
<path d="M0 0 C2.52259061 1.97420135 2.9929808 2.96745642 3.6875 6.1875 C3.790625 7.115625 3.89375 8.04375 4 9 C3.34 7.68 2.68 6.36 2 5 C1.34 5 0.68 5 0 5 C0 3.35 0 1.7 0 0 Z " fill="#483C41" transform="translate(140,71)"/>
</svg>
